<?xml version="1.0" encoding="utf-8"?>
<!-- Generator: Adobe Illustrator 17.0.0, SVG Export Plug-In . SVG Version: 6.00 Build 0)  -->
<!DOCTYPE svg PUBLIC "-//W3C//DTD SVG 1.1//EN" "http://www.w3.org/Graphics/SVG/1.1/DTD/svg11.dtd">
<svg version="1.1" id="Modo_de_aislamiento" xmlns="http://www.w3.org/2000/svg" xmlns:xlink="http://www.w3.org/1999/xlink"
	 x="0px" y="0px" width="199px" height="199px" viewBox="0 0 199 199" enable-background="new 0 0 199 199" xml:space="preserve">
<g>
	<g>
		<defs>
			<path id="SVGID_1_" d="M136.276,39.499H99.917H61.724c-4.725,0-9.117,1.415-12.785,3.838c-6.289,4.156-10.44,11.285-10.44,19.387
				v74.552c0,4.232,1.138,8.196,3.115,11.613c1.682,2.906,3.981,5.407,6.71,7.341c3.786,2.684,8.405,4.271,13.401,4.271h36.237
				h38.315c11.617,0,21.242-8.53,22.954-19.668c0.178-1.16,0.271-2.348,0.271-3.558V77.27V62.724
				C159.501,49.897,149.103,39.499,136.276,39.499z"/>
		</defs>
		<use xlink:href="#SVGID_1_"  overflow="visible" fill="#CFCFCF"/>
		<clipPath id="SVGID_2_">
			<use xlink:href="#SVGID_1_"  overflow="visible"/>
		</clipPath>
		<path clip-path="url(#SVGID_2_)" fill="#CFCFCF" enable-background="new    " d="M136.276,39.499H99.917H61.724
			c-4.725,0-9.117,1.415-12.785,3.838c-6.289,4.156-10.44,11.285-10.44,19.387v74.552c0,4.232,1.138,8.196,3.115,11.613
			c1.682,2.906,3.981,5.407,6.71,7.341c3.786,2.684,8.405,4.271,13.401,4.271h36.237h38.315c11.617,0,21.242-8.53,22.954-19.668
			c0.178-1.16,0.271-2.348,0.271-3.558V77.27V62.724C159.501,49.897,149.103,39.499,136.276,39.499z"/>
	</g>
	<g>
		<defs>
			<path id="SVGID_13_" d="M136.276,39.499H99.917H61.724c-4.725,0-9.117,1.415-12.785,3.838
				c-6.289,4.156-10.44,11.285-10.44,19.387v74.552c0,4.232,1.138,8.196,3.115,11.613c1.682,2.906,3.981,5.407,6.71,7.341
				c3.786,2.684,8.405,4.271,13.401,4.271h36.237h38.315c11.617,0,21.242-8.53,22.954-19.668c0.178-1.16,0.271-2.348,0.271-3.558
				V77.27V62.724C159.501,49.897,149.103,39.499,136.276,39.499z"/>
		</defs>
		<clipPath id="SVGID_3_">
			<use xlink:href="#SVGID_13_"  overflow="visible"/>
		</clipPath>
		<g clip-path="url(#SVGID_3_)">
			<g>
				<linearGradient id="SVGID_4_" gradientUnits="userSpaceOnUse" x1="76.8603" y1="-3.3107" x2="200.8603" y2="134.6893">
					<stop  offset="0" style="stop-color:#EE6F61"/>
					<stop  offset="0.3257" style="stop-color:#DD8355"/>
					<stop  offset="0.493" style="stop-color:#9CB642"/>
					<stop  offset="0.7434" style="stop-color:#B7B74C"/>
					<stop  offset="1" style="stop-color:#E2B260"/>
				</linearGradient>
				<polygon fill="url(#SVGID_4_)" enable-background="new    " points="144.691,94.84 160.34,94.84 161.514,68.239 143.91,70.2 
									"/>
				<linearGradient id="SVGID_5_" gradientUnits="userSpaceOnUse" x1="64.6788" y1="7.635" x2="188.6788" y2="145.635">
					<stop  offset="0" style="stop-color:#EE6F61"/>
					<stop  offset="0.3257" style="stop-color:#DD8355"/>
					<stop  offset="0.493" style="stop-color:#9CB642"/>
					<stop  offset="0.7434" style="stop-color:#B7B74C"/>
					<stop  offset="1" style="stop-color:#E2B260"/>
				</linearGradient>
				<polygon fill="url(#SVGID_5_)" enable-background="new    " points="38.013,67.63 35.665,32.415 58.741,31.972 60.698,58.273 
					65.001,58.273 65.783,36.431 88.081,33.757 93.162,60.052 102.942,59.168 100.596,30.186 126.023,30.636 124.849,54.701 
					133.845,57.38 134.237,29.297 165.921,30.636 160.446,61.391 				"/>
				<linearGradient id="SVGID_6_" gradientUnits="userSpaceOnUse" x1="16.8714" y1="50.5924" x2="140.8714" y2="188.5924">
					<stop  offset="0" style="stop-color:#EE6F61"/>
					<stop  offset="0.3257" style="stop-color:#DD8355"/>
					<stop  offset="0.493" style="stop-color:#9CB642"/>
					<stop  offset="0.7434" style="stop-color:#B7B74C"/>
					<stop  offset="1" style="stop-color:#E2B260"/>
				</linearGradient>
				<polygon fill="url(#SVGID_6_)" enable-background="new    " points="36.967,72.193 36.576,97.229 58.091,89.795 58.482,72.193 
									"/>
				<linearGradient id="SVGID_7_" gradientUnits="userSpaceOnUse" x1="36.7573" y1="32.7238" x2="160.7573" y2="170.7238">
					<stop  offset="0" style="stop-color:#EE6F61"/>
					<stop  offset="0.3257" style="stop-color:#DD8355"/>
					<stop  offset="0.493" style="stop-color:#9CB642"/>
					<stop  offset="0.7434" style="stop-color:#B7B74C"/>
					<stop  offset="1" style="stop-color:#E2B260"/>
				</linearGradient>
				<polygon fill="url(#SVGID_7_)" enable-background="new    " points="62.785,71.024 62.003,92.146 101.511,94.491 97.208,68.673 
									"/>
				<linearGradient id="SVGID_8_" gradientUnits="userSpaceOnUse" x1="58.4684" y1="13.2153" x2="182.4684" y2="151.2153">
					<stop  offset="0" style="stop-color:#EE6F61"/>
					<stop  offset="0.3257" style="stop-color:#DD8355"/>
					<stop  offset="0.493" style="stop-color:#9CB642"/>
					<stop  offset="0.7434" style="stop-color:#B7B74C"/>
					<stop  offset="1" style="stop-color:#E2B260"/>
				</linearGradient>
				<polygon fill="url(#SVGID_8_)" enable-background="new    " points="106.207,96.446 102.294,69.453 137.107,70.63 
					139.844,94.098 				"/>
				<linearGradient id="SVGID_9_" gradientUnits="userSpaceOnUse" x1="9.3533" y1="57.3478" x2="133.3533" y2="195.3477">
					<stop  offset="0" style="stop-color:#EE6F61"/>
					<stop  offset="0.3257" style="stop-color:#DD8355"/>
					<stop  offset="0.493" style="stop-color:#9CB642"/>
					<stop  offset="0.7434" style="stop-color:#B7B74C"/>
					<stop  offset="1" style="stop-color:#E2B260"/>
				</linearGradient>
				<polygon fill="url(#SVGID_9_)" enable-background="new    " points="38.141,102.701 56.917,95.276 102.294,99.185 
					97.598,142.996 30.884,142.907 				"/>
				<linearGradient id="SVGID_10_" gradientUnits="userSpaceOnUse" x1="36.0103" y1="33.3951" x2="160.0103" y2="171.3951">
					<stop  offset="0" style="stop-color:#EE6F61"/>
					<stop  offset="0.3257" style="stop-color:#DD8355"/>
					<stop  offset="0.493" style="stop-color:#9CB642"/>
					<stop  offset="0.7434" style="stop-color:#B7B74C"/>
					<stop  offset="1" style="stop-color:#E2B260"/>
				</linearGradient>
				<polygon fill="url(#SVGID_10_)" enable-background="new    " points="105.814,99.185 101.511,142.214 133.586,142.603 
					128.108,99.968 				"/>
				<linearGradient id="SVGID_11_" gradientUnits="userSpaceOnUse" x1="54.7136" y1="16.5892" x2="178.7136" y2="154.5892">
					<stop  offset="0" style="stop-color:#EE6F61"/>
					<stop  offset="0.3257" style="stop-color:#DD8355"/>
					<stop  offset="0.493" style="stop-color:#9CB642"/>
					<stop  offset="0.7434" style="stop-color:#B7B74C"/>
					<stop  offset="1" style="stop-color:#E2B260"/>
				</linearGradient>
				<polygon fill="url(#SVGID_11_)" enable-background="new    " points="134.369,101.259 136.715,143.519 161.751,141.712 
					160.577,98.735 142.19,98.005 				"/>
				<linearGradient id="SVGID_12_" gradientUnits="userSpaceOnUse" x1="20.9116" y1="46.962" x2="144.9116" y2="184.962">
					<stop  offset="0" style="stop-color:#EE6F61"/>
					<stop  offset="0.3257" style="stop-color:#DD8355"/>
					<stop  offset="0.493" style="stop-color:#9CB642"/>
					<stop  offset="0.7434" style="stop-color:#B7B74C"/>
					<stop  offset="1" style="stop-color:#E2B260"/>
				</linearGradient>
				<polygon fill="url(#SVGID_12_)" enable-background="new    " points="88.383,177.76 163.073,171.001 161.112,147.283 
					86.305,147.52 89.138,163.262 				"/>
				<linearGradient id="SVGID_14_" gradientUnits="userSpaceOnUse" x1="-10.6201" y1="75.2948" x2="113.3799" y2="213.2948">
					<stop  offset="0" style="stop-color:#EE6F61"/>
					<stop  offset="0.3257" style="stop-color:#DD8355"/>
					<stop  offset="0.493" style="stop-color:#9CB642"/>
					<stop  offset="0.7434" style="stop-color:#B7B74C"/>
					<stop  offset="1" style="stop-color:#E2B260"/>
				</linearGradient>
				<polygon fill="url(#SVGID_14_)" enable-background="new    " points="84.121,146.69 85.94,173.401 55.66,178.806 
					25.384,149.407 				"/>
			</g>
		</g>
		<path clip-path="url(#SVGID_3_)" fill="none" enable-background="new    " d="M136.276,39.499H99.917H61.724
			c-4.725,0-9.117,1.415-12.785,3.838c-6.289,4.156-10.44,11.285-10.44,19.387v74.552c0,4.232,1.138,8.196,3.115,11.613
			c1.682,2.906,3.981,5.407,6.71,7.341c3.786,2.684,8.405,4.271,13.401,4.271h36.237h38.315c11.617,0,21.242-8.53,22.954-19.668
			c0.178-1.16,0.271-2.348,0.271-3.558V77.27V62.724C159.501,49.897,149.103,39.499,136.276,39.499z"/>
	</g>
	<g>
		<path fill="#FFFFFF" d="M134.815,103.216v15.766h-7.376v-15.766c0-4.371-2.177-6.502-6.265-6.502
			c-2.602,0-4.724,0.828-6.366,2.231v20.036h-7.38V90.729h7.38v1.767c2.121-1.453,4.77-2.29,7.696-2.29
			C130.94,90.206,134.815,94.059,134.815,103.216z"/>
		<path fill="#FFFFFF" d="M85.584,92.39c-0.717,0.849-0.427,2.284,0.657,3.198l0,0c1.083,0.912,2.545,0.954,3.26,0.1l9.388-11.146
			c0.724-0.853,0.429-2.286-0.657-3.198l0,0c-1.081-0.912-2.541-0.958-3.26-0.102L85.584,92.39z"/>
		<g>
			<path fill="#FFFFFF" d="M98.835,90.537l-3.978,4.668c-0.339,0.395-0.719,0.721-1.123,1.008c1.491,3.94,0.958,8.476-1.874,11.795
				c-4.218,4.95-11.791,5.398-16.879,1.062c-5.088-4.337-5.803-11.847-1.585-16.801c2.748-3.221,6.949-4.511,10.948-3.823
				c0.236-0.502,0.519-0.993,0.893-1.439l3.894-4.565c-7.577-3.122-16.35-1.476-21.67,4.764c-6.721,7.884-5.368,20.043,2.995,27.17
				c8.405,7.165,20.582,6.541,27.301-1.34C103.17,106.684,103.36,97.58,98.835,90.537z"/>
		</g>
	</g>
</g>
</svg>
