<?xml version="1.0" encoding="utf-8"?>
<!-- Generator: Adobe Illustrator 24.0.3, SVG Export Plug-In . SVG Version: 6.00 Build 0)  -->
<svg version="1.1" id="Capa_1" xmlns="http://www.w3.org/2000/svg" xmlns:xlink="http://www.w3.org/1999/xlink" x="0px" y="0px"
	 viewBox="0 0 168 228" style="enable-background:new 0 0 168 228;" xml:space="preserve">
<style type="text/css">
	.st0{fill:#FFFFFF;}
</style>
<g>
	<path class="st0" d="M74.4,76.3h13.2c0.2,0,0.3-0.1,0.3-0.3V65.4c0-0.2-0.1-0.3-0.3-0.3H74.4c-0.2,0-0.3,0.1-0.3,0.3V76
		C74.1,76.1,74.2,76.3,74.4,76.3z M74.7,65.7h12.7v10H74.7V65.7z"/>
	<path class="st0" d="M11.9,110.5C11.9,110.5,11.9,110.5,11.9,110.5L11.9,110.5l3.2,1.2v58c0,0.1,0.1,0.2,0.2,0.3L75.4,187l12.2,0.9
		c0,0,0,0,0,0c0,0,0,0,0.1,0l64.1-15.8c0.1,0,0.2-0.1,0.2-0.3v-64l3.7-1.3c0.1,0,0.2-0.1,0.2-0.3v-1.9c0-0.1,0-0.2-0.1-0.2
		l-41.9-37.6v-7.4c0-0.1,0-0.2-0.1-0.2L97.2,45.2V44c0-0.1,0-0.1-0.1-0.2l-2.7-2.6l0,0c-0.1,0-0.1-0.1-0.2-0.1h-3.5
		c-0.1,0-0.1,0-0.2,0.1l-0.8,0.7h-17l-0.5-0.7c-0.1-0.1-0.1-0.1-0.2-0.1h-4v0c-0.1,0-0.1,0-0.2,0.1l-2.4,2.4
		c-0.1,0.1-0.1,0.1-0.1,0.2v1.3L53.1,56.5C53,56.6,53,56.6,53,56.7v1.6l-6.5,5.9h-0.6c-0.1,0-0.1,0-0.2,0.1l-1,0.9
		c-0.1,0.1-0.1,0.1-0.1,0.2v7.7l-32.8,34.7c0,0.1-0.1,0.1-0.1,0.2v2.2C11.7,110.4,11.8,110.5,11.9,110.5z M97.6,52.9v2.8H64.7v-2.8
		H97.6z M146.9,149.7l-7.1-0.8c-0.1,0-0.2,0-0.2,0.1c-0.1,0.1-0.1,0.1-0.1,0.2v18.5l-6.8,0.8V148c0-0.1-0.1-0.3-0.2-0.3l-10.1-1.5
		c-0.1,0-0.2,0-0.2,0.1c-0.1,0.1-0.1,0.1-0.1,0.2V170l-24.2,3.2v-37.7l53.5,10.6v20.2l-4.3,0.5v-16.7
		C147.1,149.8,147,149.7,146.9,149.7z M116.2,136l8.2-0.6v2.2l-8.2,0.8V136z M130.6,127.5l-5.9-2.1l0,0c0,0-0.1,0-0.1,0l-0.4,0
		v-12.1l6.4,3.5V127.5z M124.9,137.6v-2.2l20.2,5v1.5L124.9,137.6z M145.1,132.8l-3.8-1.4v-9.1l3.8,2.3V132.8z M145.1,133.4v6.5
		l-3.8-0.9V132L145.1,133.4z M140.8,138.8l-9.6-2.4v-8.1l9.6,3.5V138.8z M130.6,136.3l-5.7-1.4V126l5.7,2.1V136.3z M124.4,125.9v8.9
		l-8.2,0.6v-8.7L124.4,125.9z M124.6,138.1l18.9,4l-6.1,0.6l-19.7-3.9L124.6,138.1z M139.4,143.1l6-0.6l6,1.4v1.5L139.4,143.1z
		 M151.4,143.4l-5.7-1.3v-1.8c0-0.1-0.1-0.2-0.2-0.2h0.2v-15.6c0-0.1-0.1-0.2-0.1-0.2l-4.3-2.6c-0.1-0.1-0.2-0.1-0.3,0
		c-0.1,0-0.1,0.1-0.1,0.2v9.4l-9.6-3.5v-11.2c0-0.1-0.1-0.2-0.1-0.2l-7-3.8c-0.1,0-0.2,0-0.3,0c-0.1,0.1-0.1,0.1-0.1,0.2v12.7
		l-7.8,0.7c-0.1,0-0.3,0.1-0.3,0.3v9l-0.2,0l-20.1-5.3l0,0c0,0,0,0-0.1,0h-0.8v-68l57,45.6V143.4z M69.7,183.2l5.5,1.9v1.3l-6.3-1.8
		L69.7,183.2z M75.7,185.2l10.9,1.1v1l-10.9-0.8V185.2z M86.9,185.8l-11.4-1.2l-4.3-1.5h21.6L86.9,185.8z M94.1,182.6H69.5
		c-0.1,0-0.2,0.1-0.2,0.1l-1,1.7l-0.9-0.3v-2.9H95v4.3l-0.6,0.1v-2.9C94.4,182.7,94.3,182.6,94.1,182.6z M37.7,138.5l-5,1.4v-21
		l4.9-2.9L37.7,138.5L37.7,138.5z M38.1,115.3c-0.1,0-0.2-0.1-0.3,0l-5.5,3.2c-0.1,0-0.1,0.1-0.1,0.2v21.3L21.9,143v-5.9
		c0-0.1,0-0.2-0.1-0.2c-0.1-0.1-0.2-0.1-0.3,0l-2.6,1c-0.1,0-0.2,0.1-0.2,0.3v5.7l-3.1,0.9v-33.2l52-49.4v67.9h-0.5v0
		c0,0-0.1,0-0.1,0l-28.9,8.2v-22.8C38.2,115.4,38.2,115.3,38.1,115.3z M39.2,147.8c-0.1-0.1-0.2-0.1-0.2-0.1l-8.4,1.6
		c-0.1,0-0.2,0.1-0.2,0.3v18.2l-14.7-2.4v-18.4l2.1-0.5v4.6c0,0.1,0,0.2,0.1,0.2c0.1,0,0.1,0.1,0.2,0.1c0,0,0,0,0,0l4.8-0.6
		c0.1,0,0.2-0.1,0.2-0.3v-5.3l41.6-9.9v37.7l-25.3-4V148C39.3,147.9,39.3,147.9,39.2,147.8z M64.9,56.3h32.5l-1.3,1.9h-30L64.9,56.3
		z M67.6,61.5l-52.3,49.7l-0.9-0.3l51.5-51.9L67.6,61.5z M95,180.8h-1.1v-36.2c0-0.2-0.1-0.3-0.3-0.3H68.5c-0.2,0-0.3,0.1-0.3,0.3
		v36.2h-0.7V143H95V180.8z M93.3,180.8H68.8v-35.9h24.5V180.8z M95,142.4H67.5v-11.8h0.5h4h18.7h3.5H95V142.4z M90.3,130.1H72.2
		V97.4h18.1V130.1z M93.8,130.1h-3v-33c0-0.2-0.1-0.3-0.3-0.3H71.9c-0.2,0-0.3,0.1-0.3,0.3v33h-3.4V61.8h25.6V130.1z M15.6,145.4
		l3.1-0.9v1.3l-3.1,0.7V145.4z M22.5,150.4l-4.2,0.5v-4.4l0.5-0.1v3.7c0,0.1,0,0.2,0.1,0.2c0.1,0,0.1,0.1,0.2,0.1c0,0,0,0,0.1,0
		l2.6-0.5c0.1,0,0.2-0.1,0.2-0.3v-4l0.6-0.1V150.4z M19.3,149.7v-11.4l2-0.8v11.8L19.3,149.7z M94,61.3H68.1l-1.6-2.5h29.2L94,61.3z
		 M97.9,56.4l56.6,49.9l-1.1,0.4L96.6,58.4L97.9,56.4z M64.3,56.4l1.3,2l-51.8,52.2l-1.3-0.5L64.3,56.4z M15.6,166.1l15,2.4
		c0.1,0,0.2,0,0.2-0.1c0.1-0.1,0.1-0.1,0.1-0.2v-18.3l7.8-1.5v21c0,0.1,0.1,0.3,0.2,0.3l25.9,4.1c0,0,0,0,0,0c0.1,0,0.1,0,0.2-0.1
		c0.1-0.1,0.1-0.1,0.1-0.2v-38.4c0-0.1,0-0.2-0.1-0.2c-0.1-0.1-0.2-0.1-0.2-0.1L21.9,145v-1.5l45-12.8V184l-51.3-14.6V166.1z
		 M87.6,187.4l-0.3,0v-1.1l6.6-3v2.6L87.6,187.4z M95.5,185.4v-54.7l19.8,5.3c0,0,0.1,0,0.1,0l0.2,0v2.4l-17.9-3.6
		c-0.1,0-0.2,0-0.2,0.1c-0.1,0.1-0.1,0.1-0.1,0.2v38.4c0,0.1,0,0.2,0.1,0.2c0.1,0,0.1,0.1,0.2,0.1c0,0,0,0,0,0l24.8-3.3
		c0.1,0,0.2-0.1,0.2-0.3v-23.3l9.5,1.4v20.5c0,0.1,0,0.2,0.1,0.2c0.1,0.1,0.1,0.1,0.2,0.1l7.3-0.9c0.1,0,0.2-0.1,0.2-0.3v-18.4
		l6.5,0.8V167c0,0.1,0,0.2,0.1,0.2c0.1,0.1,0.1,0.1,0.2,0.1l4.5-0.5v4.9L95.5,185.4z M151.7,107.3L94.5,61.5l1.8-2.6l56.5,48
		L151.7,107.3z M155.3,106.1l-0.1,0l-57-50.3v-2.6l57.1,51.2V106.1z M96.7,45.6l16.6,13.7v6.8L98.1,52.5l0,0c0,0-0.1-0.1-0.2-0.1
		h-3.4V42.1l2.1,2v1.3C96.6,45.5,96.7,45.5,96.7,45.6z M72.3,42.4c0.1,0.1,0.1,0.1,0.2,0.1h17.3c0.1,0,0.1,0,0.2-0.1l0.8-0.7h3.1
		v10.7H68.1V41.7h3.6L72.3,42.4z M45.2,65.5l0.8-0.7h0.6c0.1,0,0.1,0,0.2-0.1l6.6-6c0.1-0.1,0.1-0.1,0.1-0.2v-1.6l12.1-11.4
		c0.1-0.1,0.1-0.1,0.1-0.2v-1.3l1.9-1.9v10.3h-3.2c-0.1,0-0.2,0-0.2,0.1l0,0l-19,20.1V65.5z M12.3,108.1l51.8-54.8v2.5l-51.8,53.7
		V108.1z"/>
	<path class="st0" d="M37.2,93.9c-0.1,0-0.2,0-0.3,0l-3.3,2.9c-0.1,0.1-0.1,0.1-0.1,0.2v6c0,0.1,0.1,0.2,0.2,0.3c0,0,0.1,0,0.1,0
		c0.1,0,0.1,0,0.2-0.1l3.3-2.4c0.1-0.1,0.1-0.1,0.1-0.2v-6.4C37.3,94.1,37.3,94,37.2,93.9z M36.8,100.5l-2.8,2v-5.3l2.8-2.4V100.5z"
		/>
	<path class="st0" d="M37.7,150.1l-5.5,0.7c-0.1,0-0.2,0.1-0.2,0.3v21.2c0,0.1,0.1,0.2,0.2,0.3l5.5,1.2c0,0,0,0,0.1,0
		c0.1,0,0.1,0,0.2-0.1c0.1-0.1,0.1-0.1,0.1-0.2v-23.1c0-0.1,0-0.2-0.1-0.2C37.8,150.1,37.8,150,37.7,150.1z M37.4,173.1l-5-1.1
		v-20.7l5-0.7V173.1z"/>
	<path class="st0" d="M91.7,133.9H71.1c-0.2,0-0.3,0.1-0.3,0.3v4.5c0,0.2,0.1,0.3,0.3,0.3h20.6c0.2,0,0.3-0.1,0.3-0.3v-4.5
		C92,134,91.9,133.9,91.7,133.9z M91.4,138.4h-20v-4h20V138.4z"/>
	<path class="st0" d="M129,100c0,0,0.1,0,0.1,0c0,0,0.1,0,0.1,0c0.1,0,0.1-0.1,0.1-0.2v-7.1c0-0.1,0-0.2-0.1-0.2l-4.5-3.3
		c-0.1-0.1-0.2-0.1-0.3,0c-0.1,0-0.2,0.1-0.2,0.3v7.7c0,0.1,0.1,0.2,0.1,0.2L129,100z M124.9,90l4,2.9v6.4l-4-2.4V90z"/>
	<path class="st0" d="M144.9,111.2c0,0,0.1,0.1,0.2,0.1c0,0,0.1,0,0.1,0c0.1,0,0.2-0.1,0.2-0.2v-6.4c0-0.1,0-0.2-0.1-0.2l-3.1-2.2
		c-0.1-0.1-0.2-0.1-0.3,0c-0.1,0-0.2,0.1-0.2,0.2v6.4c0,0.1,0,0.2,0.1,0.2L144.9,111.2z M142.2,102.9l2.6,1.8v5.7l-2.6-1.8V102.9z"
		/>
	<path class="st0" d="M130.9,150.3l-7-0.5c-0.1,0-0.2,0-0.2,0.1c-0.1,0.1-0.1,0.1-0.1,0.2v25c0,0.1,0,0.2,0.1,0.2
		c0,0,0.1,0.1,0.2,0.1c0,0,0,0,0.1,0l7-1.7c0.1,0,0.2-0.1,0.2-0.3v-22.9C131.2,150.4,131.1,150.3,130.9,150.3z M130.6,173.3
		l-6.4,1.5v-24.4l6.4,0.4V173.3z"/>
	<path class="st0" d="M145.4,151.5l-3.9-0.4c-0.1,0-0.2,0-0.2,0.1c-0.1,0.1-0.1,0.1-0.1,0.2v20.3c0,0.1,0,0.2,0.1,0.2
		c0,0,0.1,0.1,0.2,0.1c0,0,0,0,0.1,0l3.9-0.9c0.1,0,0.2-0.1,0.2-0.3v-19C145.7,151.6,145.6,151.5,145.4,151.5z M145.1,170.5
		l-3.3,0.8v-19.6l3.3,0.3V170.5z"/>
</g>
</svg>
