<?xml version="1.0" encoding="utf-8"?>
<!-- Generator: Adobe Illustrator 24.0.3, SVG Export Plug-In . SVG Version: 6.00 Build 0)  -->
<svg version="1.1" id="Capa_1" xmlns="http://www.w3.org/2000/svg" xmlns:xlink="http://www.w3.org/1999/xlink" x="0px" y="0px"
	 viewBox="0 0 200 250" style="enable-background:new 0 0 200 250;" xml:space="preserve">
<style type="text/css">
	.st0{fill:#FFFFFF;}
</style>
<g>
	<path class="st0" d="M83.9,95.4c0,0,0-15.1,16.6-15.4c9.2-0.2,16.6,7.6,16.6,15.8c0,0.8,0,2.3,0,2.3v19.4l0.5,0h21.1l2.8-67.9
		c0-1.2-1-2.1-2.2-1.8L77.1,60.9v52.9l6.8,0.6V95.4z"/>
	<path class="st0" d="M99.6,89.9c-4.2,0-7.6,3-8.3,7l-0.1,18.7l17,0.6l0-17.5c0-0.1,0-0.2,0-0.3C108.1,93.7,104.3,89.9,99.6,89.9z"
		/>
	<path class="st0" d="M145,142l-83.5-23.2c-2.3-0.6-4.5,1.1-4.5,3.5v38.2c0,1.3,0.7,2.4,1.8,3.1l83.6,49c2.9,1.7,6.5-0.4,6.5-3.7
		v-61.8C148.9,144.7,147.3,142.6,145,142z"/>
	<path class="st0" d="M47.6,16L30.3,33.5c-0.7,0.7-1.1,1.5-1.1,2.5l-10,118.6c-0.1,1.6,0.7,3,2,3.8l27.3,15c2.6,1.5,5.9-0.5,5.9-3.5
		V18.7C54.4,15.2,50.1,13.5,47.6,16z M41.8,47.8h-2.1V36.9h2.1V47.8z"/>
</g>
</svg>
