<?xml version="1.0" encoding="iso-8859-1"?>
<!-- Generator: Adobe Illustrator 19.0.0, SVG Export Plug-In . SVG Version: 6.00 Build 0)  -->
<svg version="1.1" id="Capa_1" xmlns="http://www.w3.org/2000/svg" xmlns:xlink="http://www.w3.org/1999/xlink" x="0px" y="0px"
	 height="40" viewBox="0 0 512 512" width="40"  xml:space="preserve">
<g>
	<g>
		<path fill="#fff" d="M493.282,350.324c-4.72-19.76-23.896-37.379-50.138-31.111c-0.664,0.158-1.316,0.362-1.953,0.61
			c-1.466,0.57-4.844,1.245-8.111,1.897c-15.91,3.176-45.523,9.087-59.691,41.774l-5.93,13.679
			c-3.675,8.479-9.26,13.7-15.056,17.042c0.127-1.902,0.188-3.852,0.16-5.869c0.241-2.904,0.032-5.836-0.205-9.157
			c-0.781-10.936-1.752-24.544,13.824-36.905l11.679-9.267c27.426-21.766,27.483-58.206,24.957-71.171
			c0.087-16.83,8.108-23.345,20.04-33.036c13.409-10.892,31.74-25.784,31.108-58.295c0.32-5.946-0.07-11.611-0.415-16.63
			c-0.935-13.582-0.548-17.493,4.118-21.196l8.026-6.371c19.279-15.299,21.013-40.344,6.591-58.517
			c-12.629-15.915-37.455-23.777-58.588-7.006L394.58,75.97c-26.31,20.879-25.638,44.558-25.146,61.848
			c0.445,15.667,0.74,26.018-13.879,37.618l-11.679,9.268c-27.417,21.759-27.483,58.183-24.959,71.16
			c-0.107,14.862-6.707,22.74-14.531,29.006l-6.101-12.201c-8.143-16.286-3.547-25.744,3.409-40.06
			c7.602-15.645,18.013-37.071,3.258-66.58l-6.668-13.335c-8.989-17.976-2.222-30.439,3.215-40.453
			c1.559-2.869,2.934-5.403,3.91-8.052c18.692-38.692-7.446-69.511-10.586-78.767c-5.619-16.532-30.132-30.07-48.406-23.906
			c-2.661,0.898-5.514,2.165-8.723,3.873c-22.188,11.818-29.44,33.624-18.475,55.554l4.582,9.165
			c2.463,4.925-0.095,10.986-6.519,23.641c-8.928,17.588-21.155,41.676-5.813,72.358l6.668,13.335
			c8.143,16.286,3.547,25.744-3.409,40.059c-7.602,15.645-18.013,37.072-3.258,66.581l5.237,10.474
			c-19.174-14.176-29.42-23.407-29.618-40.714c2.521-12.993,2.442-49.392-24.964-71.14l-11.678-9.267
			c-8.656-6.87-13.828-17.371-14.054-28.373c2.511-13.034,2.399-49.373-24.972-71.094l-19.12-15.173
			c-21.132-16.77-45.96-8.908-58.589,7.006c-6.633,8.358-9.998,18.522-9.475,28.62c0.597,11.532,6.303,22.149,16.066,29.898
			l8.026,6.37c4.666,3.702,5.053,7.614,4.118,21.197c-2.388,34.693,2.883,54.202,32.381,76.165
			c17.055,12.706,19.393,22.384,18.106,40.405c-0.237,3.322-0.446,6.254-0.205,9.159c-0.471,34.398,22.806,51.729,32.803,59.173
			c17.025,12.675,19.394,22.347,18.106,40.403c-0.237,3.321-0.446,6.253-0.205,9.157c-0.024,1.675,0.023,3.297,0.105,4.893
			c-1.799-1.168-3.165-2.599-3.965-4.445l-10.967-25.3c-14.168-32.687-43.782-38.599-59.691-41.775
			c-10.117-2.02-6.906-1.754-10.063-2.506c-26.239-6.272-45.419,11.351-50.139,31.111c-2.478,10.378-1.233,21.013,3.508,29.943
			c10.788,20.321,32.434,20.827,37.162,22.686c5.793,1.384,7.797,4.766,12.69,17.47c14.603,37.918,28.225,48.677,64.912,56.666
			c7.981,1.739,13.25,3.047,16.795,4.915H63.252c-8.282,0-14.997,6.715-14.997,14.997S54.969,512,63.252,512
			c12.604,0,355.69,0,359.926,0c8.282,0,14.997-6.715,14.997-14.997c0-8.282-6.715-14.997-14.997-14.997h-66.528
			c2.977-2.385,12.105-4.117,15.83-4.858c17.415-3.467,46.489-9.258,60.791-41.474c2.803-5.254,4.845-10.554,6.653-15.25
			c4.894-12.705,6.898-16.087,12.69-17.47l9.966-2.381c12.122-2.895,21.782-10.107,27.196-20.306
			C494.516,371.336,495.762,360.702,493.282,350.324z M203.842,482.005h-14.295l-2.626-6.061
			c-8.939-20.623-28.128-24.803-43.547-28.161c-26.412-5.753-32.388-9.799-43.305-38.139c-4.978-12.926-11.796-30.629-33.711-35.864
			L56.39,371.4c-10.134-2.42-9.32-10.673-8.499-14.108c0.634-2.653,3.447-10.987,13.271-9.063c3.568,1.245,7.456,2.021,11.886,2.904
			c17.067,3.407,30.704,7.358,38.043,24.29l10.967,25.3c8.695,20.061,28.971,24.345,39.863,26.647
			c1.544,0.326,3.621,0.766,4.402,1.018c8.599,11.401,20.288,19.973,31.228,27.985c4.572,3.349,9.238,6.77,13.711,10.39
			L203.842,482.005z M222.548,437.555c-2.438-1.831-4.869-3.617-7.276-5.38c-21.282-15.589-32.362-24.627-31.832-44.043
			c0.021-0.766-0.017-1.532-0.113-2.292c-0.376-8.296,7.661-40.629-24.109-66.443c-1.634-1.589-3.507-2.983-5.771-4.668
			c-8.459-6.299-21.245-15.818-20.711-35.331c0.021-0.766-0.017-1.532-0.113-2.292c-0.525-11.608,8.73-42.361-29.88-71.112
			c-18.104-13.48-22.315-21.793-20.371-50.05c0.951-13.818,2.253-32.743-15.396-46.75l-8.026-6.37
			c-8.162-6.478-3.936-13.611-1.741-16.379c1.738-2.189,8.058-8.815,16.45-2.156l19.119,15.172
			c15.773,12.517,14.838,35.513,14.392,40.723c-0.45,1.36-0.711,2.805-0.751,4.305c-0.575,21.017,8.915,41.369,25.385,54.44
			l11.679,9.268c15.773,12.517,14.838,35.513,14.392,40.723c-0.45,1.36-0.711,2.805-0.751,4.305
			c-0.989,36.172,23.627,54.191,45.345,70.089c4.948,3.622,10,7.324,14.849,11.261c-0.744,1.428-1.507,2.802-2.246,4.131
			c-1.617,2.907-3.044,5.474-4.053,8.205c-14.393,29.639-3.897,50.571,3.787,65.898
			C219.391,421.957,222.957,429.075,222.548,437.555z M278.126,452.633c-0.024,0.048-0.047,0.096-0.071,0.144l-14.225,29.227H237.2
			l7.801-16.029c14.969-30.004,4.362-51.159-3.384-66.609c-8.753-17.458-11.782-25.493-0.334-46.08
			c1.925-3.46,4.474-8.057,6.662-13.656c1.967-2.702,2.921-5.896,2.863-9.075c2.872-11.949,2.917-27.03-5.843-44.55l-6.668-13.335
			c-8.143-16.286-3.547-25.744,3.409-40.06c7.602-15.645,18.013-37.071,3.258-66.58l-6.668-13.335
			c-8.169-16.338-3.144-27.883,5.731-45.369c7.164-14.112,16.079-31.676,6.601-50.631c-5.174-11.557-12.293-17.665,1.164-24.832
			c1.775-0.945,4.785-1.72,5.419-1.613c4.186,0.711,7.513,2.334,9.674,6.095c5.658,14.789,22.935,31.97,11.24,55.362
			c-0.346,0.692-2.212,4.802-2.982,6.222c-6.384,11.756-19.666,36.217-3.685,68.179l6.668,13.335
			c8.143,16.286,3.547,25.744-3.409,40.059c-7.602,15.645-18.013,37.072-3.258,66.581l6.668,13.335
			c5.204,10.407,5.204,22.831,0,33.238c-0.342,0.685-0.632,1.396-0.866,2.125c-3.2,7.761-24.081,33.588-6.256,70.356
			c1.009,2.731,2.436,5.299,4.054,8.207C280.387,422.925,287.019,434.849,278.126,452.633z M301.354,353.357
			c1.621-2.914,3.051-5.487,4.06-8.225c4.323-8.998,6.499-18.795,6.57-28.604c1.042-0.782,2.252-1.647,3.271-2.375
			c12.098-8.639,34.615-24.72,33.626-60.926c-0.041-1.5-0.302-2.945-0.752-4.305c-0.446-5.211-1.381-28.206,14.392-40.723
			l11.679-9.268c26.383-20.937,25.709-44.65,25.217-61.965c-0.444-15.631-0.738-25.958,13.809-37.501l19.12-15.173
			c8.391-6.66,14.711-0.033,16.449,2.156c2.196,2.767,6.422,9.901-1.741,16.378l-8.026,6.37
			c-17.649,14.006-16.348,32.931-15.396,46.75c0.324,4.703,0.629,9.145,0.364,13.367c-0.028,0.45-0.037,0.901-0.024,1.352
			c0.498,18.201-7.664,24.83-20.019,34.866c-13.501,10.967-31.992,25.986-31.092,58.966c0.041,1.5,0.302,2.945,0.752,4.306
			c0.446,5.211,1.381,28.205-14.392,40.723l-11.679,9.268c-32.287,25.622-24.432,57.478-24.865,67.051
			c-0.682,5.382,2.238,17.043-13.071,31.328C301.894,392.518,283.984,384.587,301.354,353.357z M455.614,371.399l-9.967,2.38
			c-21.914,5.235-28.733,22.937-33.711,35.864c-4.493,11.665-4.91,11.17-5.913,13.482c-10.654,24.576-36.394,22.055-53.213,28.005
			c-19.319,5.052-26.573,20.845-30.46,30.874h-25.162l7.802-16.03c1.78-3.567,3.176-7.029,4.277-10.388
			c6.754-5.45,19.297-13.054,29.154-25.448c4.637-1.682,40.589-4.19,56.561-41.038l5.93-13.679
			c7.339-16.932,20.977-20.883,38.043-24.29c4.429-0.884,8.316-1.661,11.886-2.904c9.828-1.923,12.637,6.409,13.271,9.063
			C464.933,360.726,465.748,368.977,455.614,371.399z"/>
	</g>
</g>
<g>
</g>
<g>
</g>
<g>
</g>
<g>
</g>
<g>
</g>
<g>
</g>
<g>
</g>
<g>
</g>
<g>
</g>
<g>
</g>
<g>
</g>
<g>
</g>
<g>
</g>
<g>
</g>
<g>
</g>
</svg>
