<svg id="Layer_1" data-name="Layer 1" xmlns="http://www.w3.org/2000/svg" viewBox="0 0 22.61 39.67"><defs><style>.cls-1{fill:#fff;}</style></defs><title>medi</title><path class="cls-1" d="M508,23.31a0.6,0.6,0,0,0-.65,0c-5.3,3.72-11,10.5-11,18.4,0,8.63,3.79,14.19,10.68,15.73v4.76a0.63,0.63,0,1,0,1.26,0V51.38l7.23-4.44a0.68,0.68,0,0,0,.23-0.9A0.61,0.61,0,0,0,515,45.8l-6.59,4V44.78l7.84-4.44a0.68,0.68,0,0,0,.26-0.9,0.61,0.61,0,0,0-.85-0.27l-7.24,4.1V38.17l6-3.45a0.68,0.68,0,0,0,.25-0.9,0.61,0.61,0,0,0-.85-0.26l-5.35,3.1v-8.8a0.63,0.63,0,1,0-1.26,0v8.8l-5.35-3.1a0.61,0.61,0,0,0-.85.26,0.68,0.68,0,0,0,.25.9l6,3.45v5.11l-7.24-4.1a0.61,0.61,0,0,0-.85.27,0.68,0.68,0,0,0,.26.9l7.84,4.44v5.06l-6.59-4a0.61,0.61,0,0,0-.86.24,0.68,0.68,0,0,0,.23.9l7.23,4.44v4.75c-6.16-1.5-9.42-6.45-9.42-14.38,0-7.22,5.15-13.5,10.08-17.07a19.59,19.59,0,0,1,10,17.07c0,7.13-2.68,11.93-7.75,13.88a0.67,0.67,0,0,0-.38.85,0.62,0.62,0,0,0,.81.39c5.61-2.15,8.58-7.38,8.58-15.12s-4-14.41-11-18.43h0Z" transform="translate(-496.42 -23.23)"/></svg>