<?xml version="1.0" encoding="utf-8"?>
<!-- Generator: Adobe Illustrator 19.2.0, SVG Export Plug-In . SVG Version: 6.00 Build 0)  -->
<svg version="1.1" id="Capa_1" xmlns="http://www.w3.org/2000/svg" xmlns:xlink="http://www.w3.org/1999/xlink" x="0px" y="0px"
	 width="595.3px" height="841.9px" viewBox="0 0 595.3 841.9" style="enable-background:new 0 0 595.3 841.9;" xml:space="preserve"
	>
<style type="text/css">
	.st0{fill:#FFFFFF;}
	.st1{fill:#CCB132;}
	.st2{fill:#1D1D1B;}
	.st3{fill:#BFBFBF;}
	.st4{fill:#1C1C1B;}
	.st5{fill:#4A946D;}
	.st6{fill:#00893B;}
	.st7{fill:#8FA72E;}
	.st8{fill:#6A912D;}
	.st9{fill:#CCD400;}
	.st10{fill:#B8C576;}
	.st11{opacity:0.9;}
	.st12{clip-path:url(#SVGID_2_);fill:#007F58;}
	.st13{fill:#D3DC86;}
</style>
<path class="st0" d="M506.1,40.2v14.2c0,3.9-2.8,5.5-6.2,3.6c-3.4-1.9-8.9-5.2-12.3-7.1c-3.4-2-3.4-5.2,0-7.1s8.9-5.2,12.3-7.1
	C503.3,34.7,506.1,36.3,506.1,40.2"/>
<path class="st1" d="M112.1,48.6c0,16.8-13.7,30.5-30.5,30.5S51.1,65.4,51.1,48.6s13.7-30.5,30.5-30.5
	C98.5,18.1,112.1,31.8,112.1,48.6"/>
<g>
	<path class="st0" d="M63.9,49.7v9c0,2.1,1.9,3.6,4,3.6h18.4c2.1,0,3.6-1.5,3.6-3.6v-0.1l6.8,3.4c0.1,0.1,0.2,0.1,0.3,0.1
		c1.3,0,2.3-1.1,2.3-2.4V48c0-1.4-0.9-2.5-2.2-2.5c-0.1,0-0.2,0-0.3,0.1L90.1,49c-0.3-1.7-1.8-3-3.6-3.1c1.9-1.4,3.1-3.6,3.1-6.1
		c0-4.2-3.4-7.6-7.6-7.6c-3.4,0-6.3,2.3-7.2,5.4c-1-1-2.5-1.7-4.1-1.7c-3.2,0-5.7,2.6-5.7,5.7c0,1.7,0.7,3.3,1.9,4.3
		C65.3,46.4,63.9,47.9,63.9,49.7L63.9,49.7z M97.2,47.4c0.3,0.1,0.4,0.4,0.4,0.6v11.6c0,0.3-0.1,0.5-0.4,0.6L90,56.6V51L97.2,47.4z
		 M75.9,44c0.5,0.7,1,1.3,1.7,1.7h-3C75.1,45.3,75.6,44.7,75.9,44L75.9,44z M76.3,39.8c0-3.2,2.6-5.8,5.8-5.8c3.2,0,5.8,2.6,5.8,5.8
		s-2.6,5.8-5.8,5.8c-2.7,0-5-1.9-5.6-4.4c0-0.3-0.1-0.6-0.2-0.9C76.3,40.2,76.3,40,76.3,39.8L76.3,39.8z M70.8,37.8
		c1.8,0,3.3,1.2,3.8,2.8c0,0.3,0.1,0.6,0.1,0.9c0,0.1,0,0.1,0,0.2c0,2.2-1.8,3.9-3.9,3.9c-2.2,0-3.9-1.8-3.9-3.9
		C66.9,39.5,68.6,37.8,70.8,37.8L70.8,37.8z M88.2,58.6c0,1.1-0.9,2-2,2H67.7c-1.1,0-2-0.9-2-2v-9c0-1.1,0.9-2,2-2h18.4
		c1.1,0,2,0.9,2,2C88.2,49.6,88.2,58.6,88.2,58.6z"/>
</g>
<path class="st1" d="M112.1,136.9c0,16.8-13.7,30.5-30.5,30.5s-30.5-13.7-30.5-30.5s13.7-30.5,30.5-30.5
	C98.5,106.4,112.1,120.1,112.1,136.9"/>
<path class="st0" d="M72.3,138.9c-1.3,0.4-2.4,0.9-2.9,1.2c-0.1,0.1-0.3,0.2-0.5,0.2s-0.4-0.1-0.6-0.3c-0.3-0.3-0.2-0.8,0.1-1.1
	c0.9-0.7,2.5-1.2,3.4-1.5c0.4-0.1,0.8,0.1,0.9,0.5C73,138.4,72.7,138.8,72.3,138.9L72.3,138.9z M82.7,143.9c0.4,2,0,3.9-1.1,5.3
	c-1,1.3-2.5,2.2-4.2,2.5c-0.5,0.1-0.9,0.1-1.4,0.1c-1.2,0-2.4-0.3-3.4-0.9c-1.6-0.9-2.6-2.5-3-4.5l0,0c-0.1-0.4,0.1-0.7,0.4-0.8
	c0.6-0.2,1.2-0.5,1.9-0.7c0.2-0.1,0.5,0,0.7,0.1c2.6,1.7,5,1.2,6.8-1.3c0.1-0.2,0.3-0.3,0.6-0.3c0.7-0.1,1.4-0.1,2-0.1
	C82.3,143.3,82.6,143.6,82.7,143.9L82.7,143.9L82.7,143.9z M81.3,144.8c-0.3,0-0.6,0-0.9,0c-1.4,1.8-3,2.7-4.8,2.7
	c-1.1,0-2.3-0.4-3.5-1.1c-0.3,0.1-0.6,0.2-0.8,0.3c0.9,3,3.6,4,5.9,3.5C79.4,149.8,81.6,147.9,81.3,144.8L81.3,144.8z M77.3,137.9
	c1.4-0.1,2.6-0.1,3.1,0.1c0.1,0,0.1,0,0.2,0c0.3,0,0.6-0.2,0.7-0.6c0.1-0.4-0.1-0.8-0.5-0.9c-1-0.3-2.6-0.2-3.7-0.1
	c-0.4,0-0.7,0.4-0.7,0.8C76.5,137.7,76.9,138,77.3,137.9L77.3,137.9z M86.3,128.2C86.3,128.2,86.4,128.2,86.3,128.2
	c0.5,0,0.8-0.3,0.8-0.7c0-0.4-0.3-0.8-0.7-0.8c-1.4-0.1-2.5-0.4-3.1-0.7c-0.4-0.2-0.8,0-1,0.3c-0.2,0.4,0,0.8,0.3,1
	C83.7,127.8,85.4,128.1,86.3,128.2L86.3,128.2z M91.6,128.2C91.6,128.2,91.7,128.2,91.6,128.2c1.2-0.1,2.8-0.3,3.7-0.8
	c0.4-0.2,0.5-0.7,0.3-1c-0.2-0.4-0.7-0.5-1-0.3c-0.5,0.3-1.7,0.5-3.1,0.7c-0.4,0-0.7,0.4-0.7,0.8C90.9,127.9,91.2,128.2,91.6,128.2
	L91.6,128.2z M87.4,143.1c1,5.4-2.8,10.9-9,13.2c-0.1,0-0.2,0-0.2,0c-0.2,0-0.3,0-0.5,0c-6.5,0-11.8-3.7-12.8-8.9L62.8,137
	c-0.2-1,0.8-2,3.2-3c2-0.8,4.6-1.6,7.5-2.2c2.9-0.6,5.6-0.8,7.7-0.8c2.6,0,3.9,0.6,4.1,1.6L87.4,143.1z M85.9,143.4l-2-10.5
	c-0.2-0.1-1-0.4-3.1-0.4c-2,0-4.4,0.3-6.9,0.8s-4.9,1.2-6.7,1.9c-2,0.8-2.6,1.4-2.8,1.6l2,10.5c0.9,4.6,5.8,7.8,11.7,7.7
	C83.5,152.8,86.8,148,85.9,143.4L85.9,143.4z M96.8,121.3c-2.1-0.4-4.8-0.7-7.8-0.7s-5.7,0.2-7.8,0.7c-2.6,0.5-3.8,1.3-3.8,2.4v4.7
	c0,0.4,0.3,0.8,0.8,0.8s0.8-0.3,0.8-0.8v-4.6c0.2-0.2,0.9-0.6,3-1c1.9-0.4,4.4-0.6,7-0.6s5.1,0.2,7,0.6c2.1,0.4,2.8,0.8,3,1v10.7
	c0,4.3-3.5,8.1-8.7,9.5c-0.4,0.1-0.7,0.5-0.5,0.9c0.1,0.3,0.4,0.6,0.7,0.6c0.1,0,0.1,0,0.2,0c2.8-0.7,5.2-2.1,7-4.1s2.8-4.4,2.8-6.9
	v-10.7C100.5,122.6,99.3,121.9,96.8,121.3L96.8,121.3z M92.6,139.2C92.6,139.2,92.7,139.2,92.6,139.2c0.8-0.1,1.5-0.2,2.1-0.3
	c0.3-0.1,0.6-0.4,0.6-0.7l0,0c0-2-0.7-3.7-2-4.9c-1.4-1.3-3.3-1.9-5.2-1.7c-0.4,0-0.7,0.4-0.7,0.8c0,0.4,0.4,0.7,0.8,0.7
	c1.5-0.1,3,0.4,4.1,1.3c0.9,0.8,1.4,1.9,1.5,3.2c-0.3,0.1-0.6,0.1-0.9,0.1c-1.2-1.1-2.5-1.7-3.8-1.8c-0.4,0-0.8,0.3-0.8,0.7
	s0.3,0.8,0.7,0.8c1.1,0.1,2.1,0.6,3.2,1.6C92.2,139.1,92.4,139.2,92.6,139.2L92.6,139.2z"/>
<g>
	<path class="st0" d="M486,105.9h28.7c0.5,0,1-0.6,1-1.2c0-0.7-0.4-1.2-1-1.2H486c-0.5,0-1,0.5-1,1.2S485.5,105.9,486,105.9"/>
</g>
<g>
	<path class="st0" d="M515.3,106.4h-28.7c-0.8,0-1.5-0.8-1.5-1.7s0.7-1.7,1.5-1.7h28.7c0.8,0,1.5,0.8,1.5,1.7
		C516.7,105.6,516.1,106.4,515.3,106.4z M486.5,103.9c-0.2,0-0.5,0.3-0.5,0.7s0.2,0.7,0.5,0.7h28.8c0.2,0,0.5-0.3,0.5-0.7
		c0-0.4-0.2-0.7-0.5-0.7H486.5z"/>
</g>
<g>
	<path class="st0" d="M514.8,115.7h-28.7c-0.5,0-1,0.5-1,1.2s0.4,1.2,1,1.2h28.7c0.5,0,1-0.5,1-1.2
		C515.7,116.2,515.3,115.7,514.8,115.7"/>
</g>
<g>
	<path class="st0" d="M515.3,118.6h-28.7c-0.8,0-1.5-0.8-1.5-1.7s0.7-1.7,1.5-1.7h28.7c0.8,0,1.5,0.8,1.5,1.7
		S516.1,118.6,515.3,118.6z M486.5,116.2c-0.2,0-0.5,0.3-0.5,0.7s0.2,0.7,0.5,0.7h28.8c0.2,0,0.5-0.3,0.5-0.7s-0.2-0.7-0.5-0.7
		H486.5z"/>
</g>
<g>
	<path class="st0" d="M514.8,127.9h-28.7c-0.5,0-1,0.5-1,1.2s0.4,1.2,1,1.2h28.7c0.5,0,1-0.5,1-1.2
		C515.7,128.5,515.3,127.9,514.8,127.9"/>
</g>
<g>
	<path class="st0" d="M515.3,130.9h-28.7c-0.8,0-1.5-0.8-1.5-1.7s0.7-1.7,1.5-1.7h28.7c0.8,0,1.5,0.8,1.5,1.7
		C516.7,130.1,516.1,130.9,515.3,130.9z M486.5,128.4c-0.2,0-0.5,0.3-0.5,0.7s0.2,0.7,0.5,0.7h28.8c0.2,0,0.5-0.3,0.5-0.7
		s-0.2-0.7-0.5-0.7H486.5z"/>
</g>
<path class="st2" d="M81.6,201.4c-20.1,0-36.4,16.3-36.4,36.4c0,4.4,0.8,8.6,2.2,12.5c1.7,6,8.6,25.2,33.6,50.3
	c23-23.1,31.3-41.3,34-48.7c1.8-4.4,2.9-9.2,2.9-14.2C118,217.7,101.7,201.4,81.6,201.4z M81.6,245.5c-5.7,0-10.4-4.6-10.4-10.4
	s4.6-10.4,10.4-10.4S92,229.4,92,235.1C92,240.8,87.4,245.5,81.6,245.5z"/>
<path class="st3" d="M41.8,356.5v48.7c0,4.7,3.8,8.5,8.5,8.5H113c4.7,0,8.5-3.8,8.5-8.5v-48.7H41.8z"/>
<g>
	<path class="st4" d="M65.6,345.8c0,1-1.1,1.9-2.5,1.9l0,0c-1.4,0-2.5-0.8-2.5-1.9V333c0-1,1.1-1.9,2.5-1.9l0,0
		c1.4,0,2.5,0.8,2.5,1.9V345.8z"/>
	<path class="st4" d="M102.5,345.8c0,1-1.1,1.9-2.5,1.9l0,0c-1.4,0-2.5-0.8-2.5-1.9V333c0-1,1.1-1.9,2.5-1.9l0,0
		c1.4,0,2.5,0.8,2.5,1.9V345.8z"/>
</g>
<path class="st4" d="M113,336.5h-9.4v9.3c0,1.6-1.5,2.9-3.5,2.9s-3.5-1.3-3.5-2.9v-9.3h-30v9.3c0,1.6-1.5,2.9-3.5,2.9
	c-1.9,0-3.5-1.3-3.5-2.9v-9.3h-9.4c-4.7,0-8.5,3.8-8.5,8.5v11.5h79.7V345C121.5,340.3,117.7,336.5,113,336.5z"/>
<g>
	<path class="st2" d="M81.6,440.4c-8.1,0-14.8,6.6-14.8,14.8S73.4,470,81.6,470s14.8-6.6,14.8-14.8S89.8,440.4,81.6,440.4z
		 M81.6,467.9c-7,0-12.8-5.7-12.8-12.8s5.7-12.8,12.8-12.8s12.8,5.7,12.8,12.8S88.7,467.9,81.6,467.9z"/>
	<polygon class="st2" points="80.6,454.8 76.1,459.3 77.5,460.7 82.6,455.6 82.6,445.1 80.6,445.1 	"/>
</g>
<polygon class="st0" points="662.9,270.9 666.9,270.9 667.2,264 662.7,264.5 "/>
<polygon class="st0" points="663.3,263.9 662.7,254.7 668.7,254.6 669.2,261.5 670.3,261.5 670.5,255.8 676.3,255.1 677.6,261.9 
	680.1,261.7 679.5,254.2 686.1,254.3 685.8,260.5 688.1,261.2 688.2,253.9 696.5,254.3 695,262.3 "/>
<polygon class="st0" points="662.8,265.1 662.7,271.5 668.3,269.6 668.4,265.1 "/>
<polygon class="st0" points="662.9,264.8 662.7,270.2 672.9,270.8 671.8,264.1 "/>
<polygon class="st0" points="663.7,271.3 662.7,264.3 671.7,264.7 672.4,270.7 "/>
<polygon class="st0" points="662.7,273 667.6,271 679.3,272.1 678.1,283.4 663.9,283.6 "/>
<polygon class="st0" points="663.8,272.1 662.7,283.2 671,283.3 669.6,272.3 "/>
<polygon class="st0" points="662.7,272.6 663.3,283.6 669.8,283.1 669.5,271.9 664.7,271.7 "/>
<polygon class="st0" points="663.2,292.4 682.6,290.7 682.1,284.5 662.7,284.6 663.4,288.7 "/>
<polygon class="st0" points="673.4,284.4 673.8,291.3 666,292.7 662.7,285.1 "/>
<g>
	<path class="st0" d="M574.7,208.8v9.8h-4.6v-9.8c0-2.7-1.4-4-3.9-4c-1.6,0-2.9,0.5-4,1.4v12.4h-4.6v-17.5h4.6v1.1
		c1.3-0.9,3-1.4,4.8-1.4C572.3,200.7,574.7,203.1,574.7,208.8"/>
	<path class="st0" d="M544.1,202.1c-0.4,0.5-0.3,1.4,0.4,2c0.7,0.6,1.6,0.6,2,0.1l5.8-6.9c0.4-0.5,0.3-1.4-0.4-2
		c-0.7-0.6-1.6-0.6-2-0.1L544.1,202.1z"/>
	<path class="st0" d="M552.3,200.9l-2.5,2.9c-0.2,0.2-0.4,0.4-0.7,0.6c0.9,2.4,0.6,5.3-1.2,7.3c-2.6,3.1-7.3,3.4-10.5,0.7
		c-3.2-2.7-3.6-7.4-1-10.4c1.7-2,4.3-2.8,6.8-2.4c0.1-0.3,0.3-0.6,0.6-0.9l2.4-2.8c-4.7-1.9-10.2-0.9-13.5,3
		c-4.2,4.9-3.3,12.4,1.9,16.9c5.2,4.4,12.8,4.1,17-0.8C555,210.9,555.1,205.3,552.3,200.9"/>
</g>
<g>
	<path class="st0" d="M499.3,352.9l-0.6,3.4c-0.1,0.5,0.1,0.9,0.5,1.2c0.4,0.3,0.9,0.3,1.3,0.1l3.1-1.6l3.1,1.6
		c0.2,0.1,0.4,0.1,0.6,0.1c0.3,0,0.5-0.1,0.7-0.2c0.4-0.3,0.6-0.7,0.5-1.2l-0.6-3.4l2.5-2.4c0.3-0.3,0.5-0.8,0.3-1.3
		c-0.1-0.4-0.5-0.8-1-0.8l-3.4-0.5l-1.5-3.1c-0.2-0.4-0.6-0.7-1.1-0.7s-0.9,0.3-1.1,0.7l-1.5,3.1l-3.4,0.5c-0.5,0.1-0.9,0.4-1,0.8
		s0,0.9,0.3,1.3L499.3,352.9z"/>
	<path class="st0" d="M518.4,333h-3.9v-2.2c0-1-0.8-1.8-1.8-1.8h-0.4c-1,0-1.8,0.8-1.8,1.8v2.2h-13.9v-2.2c0-1-0.8-1.8-1.8-1.8h-0.3
		c-1,0-1.8,0.8-1.8,1.8v2.2h-3.9c-2.1,0-3.7,1.7-3.7,3.7v25.8c0,2,1.7,3.7,3.7,3.7h29.5c2.1,0,3.7-1.7,3.7-3.7v-25.8
		C522.1,334.6,520.4,333,518.4,333 M517.9,362h-28.6v-20.1h28.6V362z"/>
</g>
<path class="st0" d="M496.5,402c-2.3,0.9-4.3,2.3-6,4s-3.1,3.8-4,6s-1.3,4.5-1.3,6.9s0.5,4.7,1.3,6.9c0.9,2.3,2.3,4.3,4,6
	s3.8,3.1,6,4s4.5,1.3,6.9,1.3c2.4,0,4.7-0.4,6.9-1.3c2.3-0.9,4.3-2.3,6-4s3.1-3.8,4-6c0.9-2.2,1.3-4.5,1.3-6.9s-0.5-4.7-1.3-6.9
	c-0.9-2.3-2.3-4.3-4-6s-3.8-3.1-6-4s-4.5-1.3-6.9-1.3C501,400.7,498.7,401.1,496.5,402L496.5,402z M489.7,426.6
	c-0.9-0.6-1.7-1.2-2.4-1.9c-1.1-3.1-1.3-6.4-0.6-9.6c0.3-0.7,0.7-1.3,1.2-1.9c0.1-0.2,0.3-0.4,0.4-0.6l4.1,2.4v0.1
	c0,2.2,0.2,4.4,0.7,6.6l0,0l-3.2,5C489.8,426.7,489.7,426.7,489.7,426.6L489.7,426.6z M501.9,435.1c0.7,0.4,1.4,0.7,2.2,0.9
	c-3.2,0.1-6.4-0.6-9.3-2.2l6.9,1.2C501.8,435.1,501.9,435.1,501.9,435.1L501.9,435.1z M501.9,433.9l-8.2-1.5c-1-1.2-1.8-2.4-2.6-3.7
	c-0.2-0.3-0.4-0.7-0.6-1l3.2-5c0.1,0,0.1,0,0.2,0.1c2,0.5,4,0.9,6.1,1.2c0.1,0,0.2,0,0.3,0l3.8,6.6c-0.7,0.9-1.3,1.9-2,2.8
	C502.1,433.6,502,433.7,501.9,433.9L501.9,433.9z M515.5,431c-0.7,0.7-1.3,1.2-2.1,1.8c-0.1-1-0.3-1.9-0.6-2.8l4.1-7.6
	c1.1-0.5,2.2-1.1,3.2-1.8c0.1-0.1,0.2-0.2,0.3-0.3C520.1,424.2,518.5,428,515.5,431L515.5,431z M515.3,421.2
	c0.2,0.3,0.3,0.6,0.5,0.9l-3.9,7.4c0,0,0,0-0.1,0c-2.1,0.4-4.3,0.6-6.5,0.6l-3.9-6.8c0.6-1.1,1.2-2.3,1.8-3.4
	c0.4-0.8,0.8-1.6,1.2-2.3l8.2-0.8C513.5,418.1,514.5,419.6,515.3,421.2L515.3,421.2z M513.6,412.4c-0.4,1-0.8,2-1.2,3l-7.9,0.8
	c-0.1-0.1-0.2-0.2-0.3-0.4c-0.9-1.1-1.9-2.1-2.8-3.2l0,0c-0.4-0.4-0.8-0.8-1.1-1.1l2.2-6.7c0.2,0,0.3-0.1,0.5-0.1
	c1.2-0.1,2.4-0.3,3.6-0.3c0.7,0,1.5-0.1,2.2,0l5.5,6.2C514,411.2,513.9,411.8,513.6,412.4L513.6,412.4z M515.5,406.8
	c1.5,1.5,2.7,3.2,3.5,5.1c-1-0.7-2.1-1.3-3.3-1.8c-0.2-0.1-0.4-0.1-0.5-0.2l-5.4-6.1c0-0.3,0.1-0.5,0.1-0.8
	C511.9,403.9,513.8,405.2,515.5,406.8L515.5,406.8z M497.9,402.8L497.9,402.8c1.3,0.5,2.4,1.1,3.5,1.8l-2.1,6.2l0,0
	c-0.4,0.2-0.9,0.3-1.3,0.5c-1.7,0.8-3.4,1.6-5,2.7l-4.1-2.4c0-0.1,0-0.3,0.1-0.4c0.3-0.7,0.5-1.5,0.9-2.2c0.2-0.5,0.5-1.1,0.8-1.6
	c0.2-0.2,0.4-0.4,0.6-0.6C493.2,404.9,495.5,403.5,497.9,402.8C497.9,402.7,497.9,402.7,497.9,402.8L497.9,402.8z"/>
<g>
	<path class="st0" d="M518.7,465.5h-25.5c-1.9,0-3.5,1.6-3.5,3.5v2.3h-1.2c-1.9,0-3.5,1.6-3.5,3.5V498c0,2.6,2.1,4.6,4.6,4.6h27.8
		c2.6,0,4.6-2.1,4.6-4.6v-29C522.2,467,520.6,465.5,518.7,465.5L518.7,465.5z M519.9,497.9c0,1.3-1,2.3-2.3,2.3h-27.8
		c-1.3,0-2.3-1-2.3-2.3v-23.2c0-0.6,0.5-1.2,1.2-1.2h1.2v23.2c0,0.6,0.5,1.2,1.2,1.2c0.6,0,1.2-0.5,1.2-1.2v-27.8
		c0-0.6,0.5-1.2,1.2-1.2H519c0.6,0,1.2,0.5,1.2,1.2L519.9,497.9L519.9,497.9z"/>
	<path class="st0" d="M507.7,480.5h9.3c0.3,0,0.6-0.3,0.6-0.6c0-0.3-0.3-0.6-0.6-0.6h-9.3c-0.3,0-0.6,0.3-0.6,0.6
		C507.1,480.3,507.4,480.5,507.7,480.5L507.7,480.5z"/>
	<path class="st0" d="M507.7,477.1h9.3c0.3,0,0.6-0.3,0.6-0.6c0-0.3-0.3-0.6-0.6-0.6h-9.3c-0.3,0-0.6,0.3-0.6,0.6
		C507.1,476.8,507.4,477.1,507.7,477.1L507.7,477.1z"/>
	<path class="st0" d="M507.7,473.6h9.3c0.3,0,0.6-0.3,0.6-0.6c0-0.3-0.3-0.6-0.6-0.6h-9.3c-0.3,0-0.6,0.3-0.6,0.6
		C507.1,473.3,507.4,473.6,507.7,473.6L507.7,473.6z"/>
	<path class="st0" d="M504.2,496.8h-9.3c-0.3,0-0.6,0.3-0.6,0.6s0.3,0.6,0.6,0.6h9.3c0.3,0,0.6-0.3,0.6-0.6
		C504.8,497,504.5,496.8,504.2,496.8L504.2,496.8z"/>
	<path class="st0" d="M504.2,493.3h-9.3c-0.3,0-0.6,0.3-0.6,0.6c0,0.3,0.3,0.6,0.6,0.6h9.3c0.3,0,0.6-0.3,0.6-0.6
		C504.8,493.5,504.5,493.3,504.2,493.3L504.2,493.3z"/>
	<path class="st0" d="M504.2,489.8h-9.3c-0.3,0-0.6,0.3-0.6,0.6c0,0.3,0.3,0.6,0.6,0.6h9.3c0.3,0,0.6-0.3,0.6-0.6
		C504.8,490.1,504.5,489.8,504.2,489.8L504.2,489.8z"/>
	<path class="st0" d="M517,496.8h-9.3c-0.3,0-0.6,0.3-0.6,0.6s0.3,0.6,0.6,0.6h9.3c0.3,0,0.6-0.3,0.6-0.6
		C517.5,497,517.3,496.8,517,496.8L517,496.8z"/>
	<path class="st0" d="M517,493.3h-9.3c-0.3,0-0.6,0.3-0.6,0.6c0,0.3,0.3,0.6,0.6,0.6h9.3c0.3,0,0.6-0.3,0.6-0.6
		C517.5,493.5,517.3,493.3,517,493.3L517,493.3z"/>
	<path class="st0" d="M517,489.8h-9.3c-0.3,0-0.6,0.3-0.6,0.6c0,0.3,0.3,0.6,0.6,0.6h9.3c0.3,0,0.6-0.3,0.6-0.6
		C517.5,490.1,517.3,489.8,517,489.8L517,489.8z"/>
	<path class="st0" d="M517,482.9h-22c-0.3,0-0.6,0.3-0.6,0.6c0,0.3,0.3,0.6,0.6,0.6h22c0.3,0,0.6-0.3,0.6-0.6
		C517.5,483.1,517.3,482.9,517,482.9L517,482.9z"/>
	<path class="st0" d="M517,486.3h-22c-0.3,0-0.6,0.3-0.6,0.6c0,0.3,0.3,0.6,0.6,0.6h22c0.3,0,0.6-0.3,0.6-0.6
		C517.5,486.6,517.3,486.3,517,486.3L517,486.3z"/>
	<path class="st0" d="M495.5,480.5h8.1c0.6,0,1.2-0.5,1.2-1.2v-8.1c0-0.6-0.5-1.2-1.2-1.2h-8.1c-0.6,0-1.2,0.5-1.2,1.2v8.1
		C494.4,480,494.9,480.5,495.5,480.5L495.5,480.5z M496.7,472.4h5.8v5.8h-5.8V472.4z"/>
</g>
<g>
	<path class="st0" d="M508.7,536.4c-0.5,0.5-0.5,1.4,0,1.9s1.4,0.5,1.9,0c1.1-1.1,2.5-1.7,4-1.7s2.9,0.6,4,1.7
		c0.3,0.3,0.6,0.4,1,0.4c0.3,0,0.7-0.1,1-0.4c0.5-0.5,0.5-1.4,0-1.9c-1.6-1.6-3.7-2.5-5.9-2.5C512.4,534,510.3,534.8,508.7,536.4
		L508.7,536.4z"/>
	<path class="st0" d="M505.6,534.7c0.3,0,0.7-0.1,1-0.4c2.1-2.1,5-3.3,8-3.3s5.9,1.2,8,3.3c0.5,0.5,1.4,0.5,1.9,0s0.5-1.4,0-1.9
		c-2.6-2.6-6.2-4.1-9.9-4.1s-7.3,1.5-9.9,4.1c-0.5,0.5-0.5,1.4,0,1.9C505,534.5,505.3,534.7,505.6,534.7L505.6,534.7z"/>
	<path class="st0" d="M520.8,544.1h-4.1v-2.4c0-1.1-0.9-2-2-2c-1.1,0-2,0.9-2,2v2.4h-22.4c-2.8,0-5,2.3-5,5v14.5c0,2.8,2.3,5,5,5
		h30.6c2.8,0,5-2.3,5-5v-14.5C525.8,546.4,523.5,544.1,520.8,544.1L520.8,544.1z M491.4,559.7c-0.4-0.7-0.6-1.5-0.7-2.3h1.9v2.3
		H491.4z M494.6,557.4h2.3v2.3h-2.3V557.4z M494.6,555.4v-2.3h2.3v2.3H494.6z M499,557.4h2.3v2.3H499V557.4z M499,555.4v-2.3h2.3
		v2.3H499z M503.3,553.1h1.1c0.4,0.7,0.6,1.5,0.8,2.3h-1.9V553.1L503.3,553.1z M501.3,551.1H499v-1.8c0.8,0.1,1.6,0.4,2.3,0.7V551.1
		z M497,551.1h-2.3V550c0.7-0.4,1.5-0.6,2.3-0.7V551.1L497,551.1z M492.6,553.1v2.3h-1.9c0.1-0.8,0.4-1.6,0.8-2.3H492.6z
		 M494.6,561.8h2.3v1.9c-0.8-0.1-1.6-0.4-2.3-0.7V561.8z M499,561.8h2.3v1.2c-0.7,0.4-1.5,0.6-2.3,0.7V561.8z M503.3,559.7v-2.3h1.9
		c-0.1,0.8-0.3,1.6-0.7,2.3H503.3z M517.5,563.4c-1.6,0-2.9-1.3-2.9-2.9c0-1.6,1.3-2.9,2.9-2.9c1.6,0,2.9,1.3,2.9,2.9
		C520.4,562.1,519.1,563.4,517.5,563.4L517.5,563.4z M517.5,555.2c-1.6,0-2.9-1.3-2.9-2.9c0-1.6,1.3-2.9,2.9-2.9
		c1.6,0,2.9,1.3,2.9,2.9S519.1,555.2,517.5,555.2L517.5,555.2z"/>
</g>
<g>
	<g>
		<path class="st5" d="M240.4,497.1c0,16.8-13.7,30.5-30.5,30.5s-30.5-13.7-30.5-30.5s13.7-30.5,30.5-30.5S240.4,480.3,240.4,497.1"
			/>
	</g>
</g>
<path class="st6" d="M243.7,55.4c0,16.8-13.7,30.5-30.5,30.5s-30.5-13.7-30.5-30.5s13.7-30.5,30.5-30.5
	C230.1,24.9,243.7,38.5,243.7,55.4"/>
<path class="st0" d="M207,44.9c0-1-0.8-1.9-1.9-1.9h-3.3c-1,0-1.9,0.8-1.9,1.9V47h7.1L207,44.9L207,44.9z"/>
<path class="st0" d="M218.4,54.8c-2.4,0-4.4,2-4.4,4.4c0,2.5,2,4.4,4.4,4.4c2.5,0,4.4-2,4.4-4.4C222.8,56.8,220.8,54.8,218.4,54.8"
	/>
<path class="st0" d="M227.1,48.5H226l-1.5-5.9c-0.3-1.1-1.2-1.9-2.4-1.9H214c-1.1,0-2.1,0.8-2.4,1.9l-1.5,5.9h-10.8
	c-1.3,0-2.4,1.1-2.4,2.4v16.6c0,1.3,1.1,2.4,2.4,2.4h4.2V53.2c0-0.6,0.5-1.1,1.1-1.1s1.1,0.5,1.1,1.1V70H227c1.4,0,2.4-1.1,2.4-2.4
	V51C229.5,49.6,228.4,48.5,227.1,48.5 M213.9,43.9c0-0.2,0.2-0.4,0.4-0.4h7.7c0.2,0,0.4,0.2,0.4,0.4v2.6c0,0.2-0.2,0.4-0.4,0.4h-7.7
	c-0.2,0-0.4-0.2-0.4-0.4V43.9z M218.4,67.3c-4.5,0-8.1-3.6-8.1-8.1s3.6-8.1,8.1-8.1s8.1,3.6,8.1,8.1S222.8,67.3,218.4,67.3"/>
<path class="st7" d="M241.7,134.1c0,16.8-13.7,30.5-30.5,30.5s-30.5-13.7-30.5-30.5s13.7-30.5,30.5-30.5S241.7,117.2,241.7,134.1"/>
<path class="st0" d="M196.4,134.1c-0.2,0.2-0.3,0.5-0.3,0.8s0.1,0.6,0.3,0.8s0.5,0.3,0.8,0.3s0.6-0.1,0.8-0.3s0.3-0.5,0.3-0.8
	s-0.1-0.6-0.3-0.8s-0.5-0.3-0.8-0.3S196.6,133.8,196.4,134.1"/>
<path class="st0" d="M221,139.7c-0.2,0.2-0.3,0.5-0.3,0.8s0.1,0.6,0.3,0.8s0.5,0.3,0.8,0.3s0.6-0.1,0.8-0.3s0.3-0.5,0.3-0.8
	s-0.1-0.6-0.3-0.8s-0.5-0.3-0.8-0.3S221.2,139.5,221,139.7"/>
<path class="st0" d="M210.4,122.8c0.3,0,0.6-0.1,0.8-0.3c0.2-0.2,0.3-0.5,0.3-0.8s-0.1-0.6-0.3-0.8c-0.2-0.2-0.5-0.3-0.8-0.3
	s-0.6,0.1-0.8,0.3c-0.2,0.2-0.3,0.5-0.3,0.8s0.1,0.6,0.3,0.8C209.9,122.6,210.1,122.8,210.4,122.8"/>
<path class="st0" d="M223.7,132.2c0.3,0,0.6-0.1,0.8-0.3s0.3-0.5,0.3-0.8s-0.1-0.6-0.3-0.8s-0.5-0.3-0.8-0.3s-0.6,0.1-0.8,0.3
	s-0.3,0.5-0.3,0.8s0.1,0.6,0.3,0.8S223.4,132.2,223.7,132.2"/>
<path class="st0" d="M201,119c0.3,0,0.6-0.1,0.8-0.3c0.2-0.2,0.3-0.5,0.3-0.8s-0.1-0.6-0.3-0.8c-0.2-0.2-0.5-0.3-0.8-0.3
	s-0.6,0.1-0.8,0.3c-0.2,0.2-0.3,0.5-0.3,0.8s0.1,0.6,0.3,0.8C200.4,118.8,200.7,119,201,119"/>
<path class="st0" d="M207.4,132.1c-0.5-0.4-1.2-0.3-1.6,0.2c-0.4,0.5-0.3,1.2,0.2,1.6c6.3,5,11,16.5,11,16.6
	c0.2,0.4,0.6,0.7,1.1,0.7c0.1,0,0.3,0,0.4-0.1c0.6-0.2,0.9-0.9,0.6-1.5C218.9,149.1,214.1,137.5,207.4,132.1"/>
<path class="st0" d="M199.3,130.2l2,3.4c0.2,0.4,0.6,0.6,1,0.6h0.1c0.4,0,0.8-0.3,1-0.7l1.5-3.6l3.8-0.8c0.4-0.1,0.8-0.4,0.9-0.8
	c0.1-0.4,0-0.9-0.4-1.2l-3-2.5l0.4-3.9c0-0.4-0.2-0.9-0.5-1.1c-0.4-0.2-0.8-0.2-1.2,0l-3.3,2L198,120c-0.4-0.2-0.9-0.1-1.2,0.2
	c-0.3,0.3-0.5,0.7-0.4,1.1l0.9,3.8l-2.6,2.9c-0.3,0.3-0.4,0.8-0.2,1.2s0.5,0.7,1,0.7L199.3,130.2z M198.8,126.1
	c0.3-0.4,0.4-0.8,0.3-1.3l-0.6-2.6l2.5,1.1c0.4,0.2,0.9,0.2,1.3-0.1l2.3-1.4l-0.3,2.7c0,0.5,0.1,0.9,0.5,1.2l2.1,1.8l-2.7,0.6
	c-0.5,0.1-0.8,0.4-1,0.9l-1,2.5l-1.4-2.4c-0.2-0.4-0.7-0.7-1.1-0.7l-2.7-0.2L198.8,126.1z"/>
<path class="st0" d="M204.5,138.3l-2.1-0.5l-0.8-2c-0.2-0.4-0.5-0.7-1-0.7c-0.4,0-0.9,0.2-1.1,0.6l-1.1,1.9l-2.2,0.1
	c-0.4,0-0.8,0.3-1,0.7s-0.1,0.9,0.2,1.2l1.4,1.6l-0.5,2.1c-0.1,0.4,0,0.9,0.4,1.2c0.3,0.3,0.8,0.4,1.2,0.2l2-0.9l1.8,1.2
	c0.2,0.1,0.4,0.2,0.6,0.2c0.2,0,0.4-0.1,0.6-0.2c0.4-0.2,0.6-0.6,0.5-1.1l-0.2-2.2l1.7-1.4c0.3-0.3,0.5-0.7,0.4-1.2
	C205.3,138.8,204.9,138.4,204.5,138.3 M202.7,140.4c-0.6,0.5-0.9,1.3-0.9,2.1l0.1,1l-0.8-0.5c-0.4-0.2-0.8-0.4-1.3-0.4
	c-0.3,0-0.7,0.1-1,0.2l-0.9,0.4l0.2-0.9c0.2-0.8,0-1.6-0.5-2.2l-0.6-0.7l1-0.1c0.8-0.1,1.5-0.5,1.9-1.2l0.5-0.8l0.4,0.9
	c0.3,0.7,0.9,1.3,1.7,1.5l0.9,0.2L202.7,140.4z"/>
<path class="st0" d="M225.7,125.9l-2.4-2l0.3-3.1c0-0.4-0.2-0.9-0.5-1.1c-0.4-0.2-0.8-0.2-1.2,0l-2.7,1.6l-2.9-1.3
	c-0.4-0.2-0.9-0.1-1.2,0.2c-0.3,0.3-0.5,0.7-0.4,1.2l0.7,3.1l-2.1,2.3c-0.3,0.3-0.4,0.8-0.2,1.2c0.2,0.4,0.5,0.7,1,0.7l3.1,0.2
	l1.6,2.7c0.2,0.4,0.6,0.6,1,0.6h0.1c0.4,0,0.8-0.3,1-0.7l1.2-2.9l3.1-0.7c0.4-0.1,0.8-0.4,0.9-0.8
	C226.1,126.7,226,126.2,225.7,125.9 M221.6,126.8c-0.5,0.1-0.9,0.5-1.1,1l-0.7,1.8l-1-1.7c-0.3-0.5-0.7-0.8-1.3-0.8l-2-0.2l1.3-1.5
	c0.3-0.4,0.5-0.9,0.4-1.4l-0.5-1.9l1.8,0.8c0.5,0.2,1,0.2,1.5-0.1l1.7-1l-0.2,2c-0.1,0.5,0.2,1,0.5,1.4l1.5,1.3L221.6,126.8z"/>
<path class="st0" d="M217.5,136.2c-0.7-3.1-0.3-4.8-0.3-4.9c0.1-0.6-0.2-1.2-0.8-1.4s-1.2,0.2-1.4,0.8c-0.1,0.3-1.9,8.3,7.8,19.9
	c0.2,0.3,0.6,0.4,0.9,0.4c0.3,0,0.5-0.1,0.7-0.3c0.5-0.4,0.6-1.1,0.1-1.6C219.9,143.7,218.2,139.1,217.5,136.2"/>
<path class="st0" d="M210.2,143.2c-1.6-1.3-3.1-1.8-3.2-1.9c-0.6-0.2-1.2,0.1-1.4,0.7c-0.2,0.6,0.1,1.3,0.7,1.5
	c0.2,0.1,4.9,1.7,4.9,6.5c0,0.6,0.5,1.1,1.1,1.1s1.1-0.5,1.1-1.1C213.5,147.3,212.4,145,210.2,143.2"/>
<path class="st8" d="M243.4,223.4c0,16.8-13.7,30.5-30.5,30.5s-30.5-13.7-30.5-30.5s13.7-30.5,30.5-30.5S243.4,206.6,243.4,223.4"/>
<path class="st0" d="M202.9,236.8l-1.1,3.3h21.4l-1.1-3.3H202.9z M206.2,239.5h-3.5l0.7-2.1h4.9
	C207.6,238.1,206.9,238.8,206.2,239.5"/>
<path class="st0" d="M212.4,214.5c-5.3,0-9.5,4.3-9.5,9.5v11.7h19.2V224c0-5.3-4.3-9.5-9.5-9.5H212.4z M220.2,224.3
	c0,0.5-0.4,0.8-0.8,0.8c-0.5,0-0.8-0.4-0.8-0.8c0-3.3-2.7-6-6-6h-0.1c-0.5,0-0.8-0.4-0.8-0.8c0-0.4,0.4-0.8,0.8-0.8h0.1
	C216.8,216.7,220.2,220.1,220.2,224.3"/>
<path class="st0" d="M201.4,220.2c0.2-0.8-0.4-1.7-1.2-1.8l-4.5-0.9c-0.8-0.2-1.7,0.4-1.8,1.2c0,0.2,0,0.4,0,0.5
	c0.1,0.6,0.6,1.2,1.2,1.3l4.5,0.9C200.4,221.6,201.2,221,201.4,220.2"/>
<path class="st0" d="M200.4,209.8l2.9,3.6c0.5,0.7,1.5,0.8,2.2,0.2c0.7-0.5,0.8-1.5,0.2-2.2l-2.9-3.6c-0.5-0.7-1.5-0.8-2.2-0.2
	c-0.4,0.4-0.6,0.9-0.6,1.4C200.1,209.3,200.2,209.6,200.4,209.8"/>
<path class="st0" d="M212.7,211.2c0.9,0,1.6-0.7,1.6-1.5v-4.6c0-0.9-0.7-1.6-1.5-1.6c-0.9,0-1.6,0.7-1.6,1.5v4.6c0,0.1,0,0.2,0,0.3
	C211.3,210.6,211.9,211.1,212.7,211.2"/>
<path class="st0" d="M219.9,214c0.6,0.6,1.6,0.5,2.2-0.1l3-3.4c0.6-0.6,0.5-1.6-0.1-2.2c-0.6-0.6-1.6-0.5-2.2,0.1l-3,3.4
	c-0.3,0.4-0.4,0.8-0.4,1.3C219.4,213.4,219.6,213.7,219.9,214"/>
<path class="st0" d="M231.2,219.6c-0.1-0.8-0.9-1.4-1.8-1.3l-4.5,0.7c-0.8,0.1-1.4,0.9-1.3,1.8c0.1,0.8,0.9,1.4,1.8,1.3l4.5-0.7
	C230.7,221.2,231.3,220.4,231.2,219.6"/>
<path class="st9" d="M241,326.8c0,16.8-13.7,30.5-30.5,30.5S180,343.7,180,326.8c0-16.8,13.7-30.5,30.5-30.5S241,310,241,326.8"/>
<g>
	<path class="st0" d="M219.2,329.2c-0.6,0.9-1.2,1.9-1.9,2.9c5.7,0.9,8.6,2.7,8.6,3.6c0,1.2-5.2,4-15.2,4s-15.2-2.8-15.2-4
		c0-0.9,2.9-2.7,8.6-3.6c-0.7-1-1.3-2-1.9-2.9c-5.6,1.1-9.9,3.2-9.9,6.5c0,4.7,9.2,7.2,18.4,7.2c9.1,0,18.4-2.5,18.4-7.2
		C229.1,332.4,224.8,330.3,219.2,329.2"/>
	<path class="st0" d="M210.8,306.9c-6,0-10.8,4.8-10.8,10.8c0,4.3,5.5,12.4,8.7,16.7c0.5,0.7,1.3,1.1,2.1,1.1s1.6-0.4,2.1-1.1
		c3.1-4.3,8.7-12.4,8.7-16.7C221.6,311.8,216.8,306.9,210.8,306.9 M210.8,324.4c-3.5,0-6.4-2.9-6.4-6.4s2.9-6.4,6.4-6.4
		s6.4,2.9,6.4,6.4S214.3,324.4,210.8,324.4"/>
	<path class="st0" d="M210.8,314.1c-2.1,0-3.9,1.7-3.9,3.9c0,2.1,1.7,3.9,3.9,3.9c2.1,0,3.9-1.7,3.9-3.9
		C214.7,315.9,212.9,314.1,210.8,314.1"/>
</g>
<path class="st10" d="M241.2,417c0,16.8-13.7,30.5-30.5,30.5s-30.5-13.7-30.5-30.5s13.7-30.5,30.5-30.5S241.2,400.1,241.2,417"/>
<path class="st0" d="M209.1,396c-0.5-0.2-1.1-0.1-1.6,0.2c-0.5,0.3-0.7,0.8-0.7,1.4v3.9h-5.9c-1.3,0-2.3,1-2.3,2.3v26.6
	c0,0.6,0.5,1.1,1.1,1.2l15.2,2.3c0.5,0.1,1-0.1,1.4-0.4s0.6-0.8,0.6-1.3v-1.3h4.3c1.1,0,2-0.9,2-2v-26.7c0-0.5-0.3-0.9-0.7-1
	L209.1,396z M210.8,423.5c-0.1,0.1-0.2,0.2-0.4,0.2h-0.1l-9.3-1.6c-0.2,0-0.3-0.1-0.4-0.3c-0.1-0.2,0-0.3,0.1-0.5l5.2-6.7
	c0.3-0.3,0.7-0.5,1.1-0.5c0.1,0,0.2,0,0.2,0c0.5,0.1,0.9,0.4,1.1,0.9l2.6,8C210.9,423.2,210.9,423.4,210.8,423.5 M214.4,421.4
	c-0.1,0.1-0.3,0.2-0.4,0.2l-1.9-0.3l-1.9-5.9v-0.1l0.2-0.3c0.3-0.4,0.8-0.6,1.2-0.5c0.5,0.1,0.9,0.4,1,0.9l1.8,5.6
	C214.5,421.1,214.5,421.3,214.4,421.4 M220,428.5h-3.3v-21c0-0.9-0.6-1.6-1.4-1.7l-12.2-1.8h16.4c0.6,0,1.1,0.5,1.1,1.1V428
	C220.6,428.2,220.4,428.5,220,428.5"/>
<g>
	<g>
		<path class="st0" d="M196.2,506.9c-1.1,1.1-1.1,2.8,0,3.8c0.5,0.5,1.2,0.8,1.9,0.8s1.4-0.3,1.9-0.8l8.9-8.9l-3.8-3.8L196.2,506.9z
			"/>
	</g>
	<path class="st0" d="M218.4,490.5l3.9-2l2-3.9l-1.9-1.9l-3.9,2l-2,3.9l-4.7,4.7l1.9,1.9L218.4,490.5z"/>
	<path class="st0" d="M219.2,500.7h-0.4c-0.7,0-1.3,0.1-1.9,0.4l-11-11.1c0.2-0.6,0.4-1.2,0.4-1.9v-0.4c-0.2-2.8-2.5-5-5.4-5
		c-0.8,0-1.6,0.2-2.3,0.5l3.6,3.6c0.2,0.2,0.3,0.4,0.4,0.6c0.2,0.6,0.1,1.4-0.4,1.9c-0.4,0.4-0.8,0.5-1.3,0.5c-0.2,0-0.4,0-0.6-0.1
		c-0.2-0.1-0.5-0.2-0.6-0.4l-3.6-3.6c-0.3,0.7-0.5,1.5-0.5,2.3c0,2.9,2.2,5.2,5,5.4h0.4c0.7,0,1.3-0.1,1.9-0.4l11.1,11.1
		c-0.2,0.6-0.4,1.2-0.4,1.9v0.4c0.2,2.8,2.5,5,5.4,5c0.8,0,1.6-0.2,2.3-0.5l-3.6-3.6c-0.2-0.2-0.3-0.4-0.4-0.6
		c-0.2-0.6-0.1-1.4,0.4-1.9c0.4-0.4,0.8-0.5,1.3-0.5c0.2,0,0.4,0,0.6,0.1c0.2,0.1,0.5,0.2,0.6,0.4l3.6,3.6c0.3-0.7,0.5-1.5,0.5-2.3
		C224.3,503.2,222.1,500.9,219.2,500.7L219.2,500.7z"/>
</g>
<g>
	<path class="st0" d="M510.2,621.6v-5.1c0-6.3-5.1-11.5-11.5-11.5c-6.3,0-11.5,5.1-11.5,11.5v5.1H485v21.3h27.6v-21.3H510.2z
		 M501.5,632.6v4.5c0,1.2-1,2.1-2.1,2.1c-1.2,0-2.1-1-2.1-2.1v-4.5c-0.7-0.6-1.2-1.5-1.2-2.6c0-1.8,1.5-3.3,3.3-3.3
		c1.8,0,3.3,1.5,3.3,3.3C502.7,631,502.2,632,501.5,632.6L501.5,632.6z M506.1,621.6h-14.6v-5.1c0-4,3.3-7.3,7.3-7.3
		s7.3,3.3,7.3,7.3C506.1,616.5,506.1,621.6,506.1,621.6z"/>
</g>
<path class="st5" d="M422.7,81.1c0,30.5-24.8,55.3-55.3,55.3s-55.3-24.8-55.3-55.3s24.8-55.3,55.3-55.3
	C397.9,25.8,422.7,50.6,422.7,81.1"/>
<path class="st0" d="M388.5,89.9l-1.9-10.8c-0.2-1.1-1.2-1.9-2.3-1.9H383l-0.5-5.1c-0.5-5.4-5-9.5-10.4-9.5H360
	c-5.4,0-9.9,4.1-10.4,9.5l-0.5,5.1h-1.3c-1.1,0-2.1,0.8-2.3,1.9l-1.9,10.8c-0.2,1.3,0.1,2.7,1,3.8c0.8,1,2.1,1.6,3.4,1.6v1.8
	c0,2.5,2,4.6,4.6,4.6h1.4c2.5,0,4.6-2,4.6-4.6v-1.8h14.9v1.8c0,2.5,2.1,4.6,4.6,4.6h1.4c2.5,0,4.6-2,4.6-4.6v-1.8
	c1.3,0,2.5-0.6,3.4-1.6C388.3,92.6,388.7,91.2,388.5,89.9 M352,91.2c-2.1,0-3.9-1.7-3.9-3.9c0-2.1,1.7-3.9,3.9-3.9
	c2.1,0,3.9,1.7,3.9,3.9C355.9,89.4,354.2,91.2,352,91.2 M353,77.2l0.5-4.7c0.3-3.4,3.1-5.9,6.5-5.9h0.7v1.5c0,1.3,1,2.3,2.3,2.3h6.2
	c1.3,0,2.3-1.1,2.3-2.3v-1.5h0.7c3.4,0,6.2,2.6,6.5,5.9l0.5,4.7H353z M380.1,91.2c-2.1,0-3.9-1.7-3.9-3.9c0-2.1,1.7-3.9,3.9-3.9
	c2.1,0,3.9,1.7,3.9,3.9C384,89.4,382.2,91.2,380.1,91.2"/>
<path class="st7" d="M419.8,219.8c0,30.5-24.8,55.3-55.3,55.3s-55.3-24.8-55.3-55.3s24.8-55.3,55.3-55.3S419.8,189.2,419.8,219.8"/>
<path class="st0" d="M379.7,207.1h-3.9v-2.4c0-3.4-2.8-6.2-6.2-6.2h-10.8c-3.4,0-6.2,2.8-6.2,6.2v2.4h-3.9c-3.4,0-6.2,2.4-6.2,5.8
	v22.8c0,3.4,2.8,6.2,6.2,6.2h31c3.4,0,6.2-2.8,6.2-6.2v-22.8C385.9,209.5,383.1,207.1,379.7,207.1 M355.9,204.7
	c0-1.5,1.3-2.9,2.9-2.9h10.8c1.5,0,2.9,1.4,2.9,2.9v2.4h-16.6L355.9,204.7L355.9,204.7z M374.1,228.7h-6.6v6.6h-6.6v-6.6h-6.6v-8.3
	h6.6v-6.6h6.6v6.6h6.6V228.7z"/>
<path class="st8" d="M416.6,360.5c0,30.5-24.8,55.3-55.3,55.3S306,391,306,360.5s24.8-55.3,55.3-55.3
	C391.9,305.2,416.6,330,416.6,360.5"/>
<path class="st0" d="M383.7,352.9v-10.4c0-0.9-0.7-1.6-1.6-1.6h-41.8c-0.9,0-1.6,0.7-1.6,1.6v10.4c0,3.2,2.2,5.9,5.2,6.6v10.1h-3.6
	c-0.9,0-1.6,0.7-1.6,1.6v7.8c0,0.9,0.7,1.6,1.6,1.6h1.2c-0.1,0.3-0.1,0.7-0.1,1c0,2.3,1.9,4.2,4.2,4.2c2.3,0,4.2-1.9,4.2-4.2
	c0-0.4,0-0.7-0.1-1h23.2c-0.1,0.3-0.1,0.7-0.1,1c0,2.3,1.9,4.2,4.2,4.2c2.3,0,4.2-1.9,4.2-4.2c0-0.4,0-0.7-0.1-1h1.2
	c0.9,0,1.6-0.7,1.6-1.6v-7.8c0-0.9-0.7-1.6-1.6-1.6h-3.6v-10.1C381.4,358.8,383.7,356.1,383.7,352.9 M347.1,369.6v-10.1
	c1.4-0.3,2.7-1.2,3.6-2.3c1.2,1.5,3.1,2.4,5.2,2.4s4-1,5.2-2.4c1.2,1.5,3.1,2.4,5.2,2.4s4-1,5.2-2.4c0.9,1.1,2.2,1.9,3.6,2.3v10.1
	H347.1z"/>
<path class="st9" d="M415,505.6c0,30.5-24.8,55.3-55.3,55.3s-55.3-24.8-55.3-55.3s24.8-55.3,55.3-55.3
	C390.2,450.3,415,475,415,505.6"/>
<path class="st0" d="M349.8,513.9v-13.3c0-2.1-1.7-3.9-3.9-3.9c-2.1,0-3.9,1.7-3.9,3.9v13.3c0,2.1,1.7,3.9,3.9,3.9
	C348.1,517.7,349.8,516,349.8,513.9"/>
<path class="st0" d="M362.4,513.9v-13.3c0-2.1-1.7-3.9-3.9-3.9c-2.1,0-3.9,1.7-3.9,3.9v13.3c0,2.1,1.7,3.9,3.9,3.9
	C360.6,517.7,362.4,516,362.4,513.9"/>
<path class="st0" d="M375,513.9v-13.3c0-2.1-1.8-3.9-3.9-3.9s-3.9,1.7-3.9,3.9v13.3c0,2.1,1.8,3.9,3.9,3.9
	C373.3,517.7,375,516,375,513.9"/>
<path class="st0" d="M377,520.8h-36.9c-2.1,0-3.9,1.8-3.9,3.9c0,2.1,1.7,3.9,3.9,3.9H377c2.1,0,3.9-1.8,3.9-3.9
	S379.1,520.8,377,520.8"/>
<path class="st0" d="M380.2,491l-20.1-8.3c-0.9-0.4-2-0.4-3,0L337,491c-0.5,0.2-0.9,0.8-0.7,1.4c0.1,0.6,0.6,1,1.2,1h42.3
	c0.6,0,1.1-0.4,1.2-1C381,491.8,380.7,491.2,380.2,491"/>
<g>
	<path class="st10" d="M420.4,643.6c0,30.5-24.7,55.3-55.3,55.3c-30.5,0-55.3-24.8-55.3-55.3s24.8-55.3,55.3-55.3
		C395.7,588.3,420.4,613,420.4,643.6"/>
</g>
<path class="st0" d="M349.4,651.1h-3.1v3.4l0,0c0,0.8,0.2,1.6,0.7,2.3c4,5,10.5,8,17.6,8c7,0,13.6-3,17.6-8c0.5-0.6,0.7-1.4,0.7-2.3
	l0,0v-3.4H349.4z"/>
<path class="st0" d="M389,636.3c-0.3-1.1-1.1-1.9-2.1-2.2l-21.4-6.8c-0.5-0.2-1.1-0.2-1.7,0l-21.4,6.8c-1,0.3-1.7,1.1-2.1,2.2
	c-0.3,1.1-0.2,2.2,0.5,3.1l4.6,6.8c0.6,0.9,1.5,1.4,2.4,1.4h33.7c1,0,1.9-0.5,2.4-1.4l4.6-6.8C389.2,638.6,389.3,637.4,389,636.3
	 M367.7,639.1c0,1.9-1.4,3.4-3.1,3.4s-3.1-1.5-3.1-3.4v-3.4h6.1v3.4H367.7z"/>
<g>
	<g class="st11">
		<g>
			<g>
				<g>
					<defs>
						<rect id="SVGID_1_" x="70" y="488.3" width="23.3" height="33.6"/>
					</defs>
					<clipPath id="SVGID_2_">
						<use xlink:href="#SVGID_1_"  style="overflow:visible;"/>
					</clipPath>
					<path class="st12" d="M81.7,488.3c-6.4,0-11.7,5-11.7,11.1c0,2.5,1.7,6.5,5.1,12.3c2.4,4.1,4.8,7.5,4.9,7.7l1.7,2.5l1.7-2.5
						c0.1-0.1,2.5-3.6,4.9-7.7c3.4-5.8,5.1-9.8,5.1-12.3C93.4,493.3,88.1,488.3,81.7,488.3 M81.7,505.1c-3.3,0-6-2.6-6-5.8
						c0-3.2,2.7-5.8,6-5.8s6,2.6,6,5.8C87.8,502.5,85,505.1,81.7,505.1"/>
				</g>
			</g>
		</g>
	</g>
</g>
<g>
	<path class="st0" d="M81.6,550.5c-8.1,0-14.8,6.6-14.8,14.8S73.5,580,81.6,580s14.8-6.6,14.8-14.8S89.8,550.5,81.6,550.5z
		 M81.6,578c-7,0-12.8-5.7-12.8-12.8s5.7-12.8,12.8-12.8s12.8,5.7,12.8,12.8S88.7,578,81.6,578z"/>
	<polygon class="st0" points="80.6,564.9 76.1,569.4 77.5,570.8 82.6,565.8 82.6,555.2 80.6,555.2 	"/>
</g>
<path class="st0" d="M82.2,670.8c-5.5,0-9.9,4.4-9.9,9.9c0,1.2,0.2,2.3,0.6,3.4c0.5,1.6,2.4,6.9,9.2,13.7c6.3-6.3,8.5-11.3,9.3-13.3
	c0.5-1.2,0.8-2.5,0.8-3.9C92.1,675.3,87.7,670.8,82.2,670.8z M82.2,682.8c-1.6,0-2.8-1.3-2.8-2.8c0-1.6,1.3-2.8,2.8-2.8
	c1.6,0,2.8,1.3,2.8,2.8C85,681.6,83.8,682.8,82.2,682.8z"/>
<path class="st13" d="M239.4,592c0,16.8-13.7,30.5-30.5,30.5s-30.5-13.7-30.5-30.5s13.7-30.5,30.5-30.5
	C225.8,561.5,239.4,575.1,239.4,592"/>
<g>
	<path class="st0" d="M211.8,582.3c-0.4,0.4-0.4,1.1,0,1.5s1.1,0.4,1.5,0c0.8-0.8,2-1.3,3.2-1.3s2.3,0.5,3.2,1.3
		c0.2,0.2,0.5,0.3,0.8,0.3s0.6-0.1,0.8-0.3c0.4-0.4,0.4-1.1,0-1.5c-1.3-1.3-2.9-1.9-4.7-1.9C214.7,580.4,213,581.1,211.8,582.3
		L211.8,582.3z"/>
	<path class="st0" d="M209.4,580.9c0.3,0,0.6-0.1,0.8-0.3c1.7-1.7,4-2.6,6.4-2.6s4.7,0.9,6.4,2.6c0.4,0.4,1.1,0.4,1.5,0
		s0.4-1.1,0-1.5c-2.1-2.1-4.9-3.3-7.9-3.3s-5.8,1.2-7.9,3.3c-0.4,0.4-0.4,1.1,0,1.5C208.8,580.8,209.1,580.9,209.4,580.9
		L209.4,580.9z"/>
	<path class="st0" d="M221.4,588.4h-3.3v-1.9c0-0.9-0.7-1.6-1.6-1.6c-0.9,0-1.6,0.7-1.6,1.6v1.9H197c-2.2,0-4,1.8-4,4V604
		c0,2.2,1.8,4,4,4h24.3c2.2,0,4-1.8,4-4v-11.5C225.4,590.2,223.6,588.4,221.4,588.4L221.4,588.4z M198.1,600.8
		c-0.3-0.6-0.5-1.2-0.6-1.8h1.5v1.8H198.1z M200.6,599h1.8v1.8h-1.8V599z M200.6,597.4v-1.8h1.8v1.8H200.6z M204.1,599h1.8v1.8h-1.8
		V599z M204.1,597.4v-1.8h1.8v1.8H204.1z M207.5,595.6h0.9c0.3,0.6,0.5,1.2,0.6,1.8h-1.5V595.6z M205.9,593.9h-1.8v-1.4
		c0.7,0.1,1.3,0.3,1.8,0.6V593.9z M202.5,593.9h-1.8V593c0.6-0.3,1.2-0.5,1.8-0.6V593.9L202.5,593.9z M199,595.6v1.8h-1.5
		c0.1-0.7,0.3-1.3,0.6-1.8H199z M200.6,602.5h1.8v1.5c-0.7-0.1-1.3-0.3-1.8-0.6V602.5z M204.1,602.5h1.8v1c-0.6,0.3-1.2,0.5-1.8,0.6
		V602.5z M207.5,600.8V599h1.5c-0.1,0.7-0.3,1.3-0.6,1.8H207.5z M218.8,603.7c-1.3,0-2.3-1-2.3-2.3s1-2.3,2.3-2.3s2.3,1,2.3,2.3
		S220,603.7,218.8,603.7L218.8,603.7z M218.8,597.3c-1.3,0-2.3-1-2.3-2.3s1-2.3,2.3-2.3s2.3,1,2.3,2.3
		C221.1,596.2,220,597.3,218.8,597.3L218.8,597.3z"/>
</g>
<g>
	<polygon class="st0" points="502.6,205.4 506.9,205.4 507.2,198 502.4,198.6 	"/>
	<polygon class="st0" points="473.2,197.9 472.6,188.2 478.9,188.1 479.5,195.3 480.6,195.3 480.9,189.3 487,188.6 488.4,195.8 
		491.1,195.5 490.4,187.6 497.4,187.7 497.1,194.3 499.6,195.1 499.7,187.3 508.4,187.7 506.9,196.2 	"/>
	<polygon class="st0" points="472.9,199.1 472.8,206 478.7,204 478.9,199.1 	"/>
	<polygon class="st0" points="480,198.8 479.8,204.6 490.7,205.3 489.5,198.2 	"/>
	<polygon class="st0" points="492,205.8 490.9,198.4 500.5,198.7 501.2,205.2 	"/>
	<polygon class="st0" points="473.3,207.5 478.4,205.5 490.9,206.6 489.6,218.6 474.5,218.8 	"/>
	<polygon class="st0" points="491.9,206.6 490.7,218.4 499.5,218.5 498,206.8 	"/>
	<polygon class="st0" points="499.7,207.1 500.4,218.8 507.3,218.3 507,206.4 501.9,206.2 	"/>
	<polygon class="st0" points="487.1,228.2 507.6,226.3 507.1,219.8 486.5,219.9 487.3,224.2 	"/>
	<polygon class="st0" points="485.9,219.6 486.4,227 478.1,228.5 474.6,220.4 	"/>
</g>
</svg>
