<?xml version="1.0" encoding="utf-8"?>
<!-- Generator: Adobe Illustrator 19.2.0, SVG Export Plug-In . SVG Version: 6.00 Build 0)  -->
<svg version="1.1" id="Capa_1" xmlns="http://www.w3.org/2000/svg" xmlns:xlink="http://www.w3.org/1999/xlink" x="0px" y="0px"
	 viewBox="0 0 841.9 422.1" style="enable-background:new 0 0 841.9 422.1;" xml:space="preserve">
<style type="text/css">
	.st0{fill:#FFFFFF;}
	.st1{fill:#B04960;}
	.st2{fill:#E77E28;}
	.st3{fill:#82A0B0;}
	.st4{fill:#6DA223;}
</style>
<g>
	<path class="st0" d="M243.5,210.4H240c-0.7,0-1.3,0.3-1.8,0.8l-5,5.3v-10.1h0.1c1.3,0,2.3-1,2.3-2.3s-1-2.3-2.3-2.3h-0.1v-4.2
		c0-0.4-0.3-0.8-0.8-0.8s-0.8,0.3-0.8,0.8v4.2h-4.6l-3.1-1.5c0,0,0,0-0.1,0l-0.3-0.2c2.1-0.3,3.7-2.1,3.7-4.2c0-2.3-1.9-4.2-4.2-4.2
		c-2.3,0-4.2,1.9-4.2,4.2c0,1,0.4,2,1,2.7c-0.5,0-0.9,0-1.4,0.2l-1.2-0.6c-2-1-4.5-0.2-5.5,1.9l-2.7,5.4c-0.4,0.8-0.4,1.7-0.2,2.5
		c0.3,0.8,0.9,1.5,1.7,1.9l0.8,0.4c-0.4,1.5-0.3,3.1,0.5,4.5l-0.1,0.1l0,0l0,0l-3.7,3.7c0,0,0,0,0,0l-1.9,1.9
		c-0.3,0.3-0.3,0.8,0,1.1l3.5,3.5c0,0,0,0,0,0h-4.2c-0.4,0-0.8,0.3-0.8,0.8s0.3,0.8,0.8,0.8h7.4c0.7,0,1.4-0.3,2-0.8l5.6-5.5
		c0.2-0.2,0.4-0.3,0.7-0.3h8c1.8,0,3.5-0.7,4.7-2l5.4-5.6c0.2-0.2,0.4-0.3,0.6-0.3h2.7v13.8c0,0.4,0.3,0.8,0.8,0.8
		c0.4,0,0.8-0.3,0.8-0.8v-14.5C244.3,210.7,243.9,210.4,243.5,210.4z M234.1,204c0,0.4-0.3,0.8-0.8,0.8h-6.1l0.3-1.5h5.8
		C233.8,203.2,234.1,203.6,234.1,204z M223.1,193.1c1.5,0,2.7,1.2,2.7,2.7c0,1.5-1.2,2.7-2.7,2.7c-1.5,0-2.7-1.2-2.7-2.7
		C220.4,194.3,221.6,193.1,223.1,193.1z M220.8,200.3l2.4,1.2c0,0,0.1,0,0.1,0l2.8,1.3l-0.3,1.5l-3.1-1.5c0,0,0,0,0,0c0,0,0,0,0,0
		l-1.7-0.8c-0.4-0.2-0.8,0-1,0.4c-0.2,0.4,0,0.8,0.4,1l1,0.5l-2,4h-5.1l3.2-6.5C217.9,200.2,219.5,199.7,220.8,200.3z M214.5,216.3
		l-1.1-1.1c0.1-0.1,0.2-0.3,0.2-0.5h1.5C215.2,215.3,214.9,215.8,214.5,216.3z M215.9,211.8c-0.4,0.4-0.6,0.8-0.7,1.4h-2.3
		c-0.3-1-0.3-2,0.1-3c0,0,0.1-0.1,0.1-0.1c0-0.1,0.1-0.1,0.1-0.2c0.1-0.1,0.1-0.2,0.2-0.3h6l-0.8,1.5h-0.9
		C217,211.1,216.3,211.3,215.9,211.8z M220.9,213.5l1.5-0.4v2.1h-1.5V213.5z M222.4,211.5l-1.8,0.5c-0.1-0.2-0.3-0.4-0.5-0.6
		l0.9-1.9h0.3c0.6,0,1.1,0.5,1.1,1.1L222.4,211.5L222.4,211.5z M216.6,199.5l0.3,0.1c-0.4,0.3-0.7,0.7-0.9,1.2l-0.7,1.4l-2.4-1.1
		l0.2-0.4C213.7,199.4,215.3,198.9,216.6,199.5z M210.3,207.3c-0.1-0.4-0.1-0.9,0.1-1.3l1.8-3.6l2.4,1.1l-2.4,4.8l-0.2,0.3l-0.8-0.4
		C210.8,208.1,210.5,207.8,210.3,207.3z M212.4,216.3l1.1,1.1l-2.6,2.6l-1.1-1.1L212.4,216.3z M207.9,220.8l0.8-0.8l1.1,1.1
		c0.4,0.4,0.5,0.8,0.5,1.3c0,0.2,0,0.5-0.1,0.7L207.9,220.8z M213.9,224.5c-0.2,0.2-0.5,0.4-0.9,0.4h-2.2c0,0,0,0,0,0
		c0.6-0.6,1-1.5,1-2.4c0-0.4-0.1-0.8-0.2-1.1l3.9-3.9c0.8-0.8,1.2-1.8,1.2-2.8v-1.1c0-0.2,0.1-0.5,0.3-0.6c0.2-0.2,0.4-0.3,0.6-0.3
		h1.4c0.2,0,0.3,0.1,0.3,0.3v6.1c0,0.1,0,0.1,0,0.1L213.9,224.5z M221.3,218.3h-0.5v-1.5h1.6c1,0,1.9,0.6,2.2,1.5H221.3z
		 M226.2,218.3c-0.3-1.3-1.1-2.3-2.3-2.8v-4.9c0-1.4-1.2-2.6-2.6-2.6H221l1.7-3.4l3.3,1.6c0,0,0.1,0,0.1,0c0,0,0,0,0,0c0,0,0,0,0,0
		c0,0,0,0,0,0c0,0,0,0,0,0c0,0,0,0,0,0c0,0,0,0,0,0c0,0,0.1,0,0.1,0h0h5.4v11.4c-0.7,0.4-1.6,0.6-2.4,0.6L226.2,218.3L226.2,218.3
		L226.2,218.3z"/>
	<path class="st0" d="M232.5,195c0.2,0,0.4-0.1,0.5-0.2s0.2-0.3,0.2-0.5c0-0.2-0.1-0.4-0.2-0.5c-0.1-0.1-0.3-0.2-0.5-0.2
		c-0.2,0-0.4,0.1-0.5,0.2c-0.1,0.1-0.2,0.3-0.2,0.5s0.1,0.4,0.2,0.5C232.1,194.9,232.3,195,232.5,195z"/>
	<path class="st0" d="M239.6,196.3c2.5,0,4.6-2.1,4.6-4.6c0-2.5-2.1-4.6-4.6-4.6c-2.5,0-4.6,2.1-4.6,4.6
		C235,194.2,237.1,196.3,239.6,196.3z M239.6,188.6c1.7,0,3.1,1.4,3.1,3.1c0,1.7-1.4,3.1-3.1,3.1c-1.7,0-3.1-1.4-3.1-3.1
		C236.6,190,238,188.6,239.6,188.6z"/>
</g>
<g>
	<path class="st0" d="M348.1,205.9c-1.2-1.3-2.8-2.2-4.8-2c-0.2-0.3-0.8-3.6-0.8-3.6s2.3-3.5,2.8-4.1c2.5-4,2.7-7.1,1.2-10.3
		c-0.5-1.2-1.8-2.2-3.1-2.2c-1,0-1.8,0.8-2.3,1.8c-1.7,2.8-1.7,8.1-0.8,11.8c0,0-0.8,0.8-1.7,1.8c-1.7,1.8-3.5,3.8-4.1,6.5
		c-0.8,3-0.2,5.8,1.7,8c2,2.5,5,3.6,8.6,3.3c0.7,3.1,1.2,5.1,0.2,7c-0.3,0.7-1,1.3-2.2,1.3c-0.3,0-0.5,0-0.8-0.2
		c1-0.5,1.8-1.5,1.8-2.7c0-1.7-1.3-3-3-3c-2.8,0.2-3,3-3,3c0,1,0.3,2,1,2.7c0.8,0.8,2.2,1.5,3.6,1.5c1.8,0,3.6-0.7,4.3-3.3
		c0.7-2.2-0.5-5.6-0.7-6.8c1.8-0.8,3.5-3.3,3.6-5C349.9,209.5,349.2,207.4,348.1,205.9z M342.8,187.5c0.2-0.3,0.5-0.5,0.8-0.5
		c0.2,0,0.5,0.2,0.7,0.3c0.7,0.3,0.8,1,0.8,2c-0.2,2.5-2.3,5.5-3.5,6.5C341.1,193.5,341.4,189.2,342.8,187.5z M338,213.5
		c-1.2-1.2-1.7-2.8-1.5-4.5c0.3-2.7,2.2-4.8,3.6-6.5c0.3-0.3,0.7-0.7,0.8-1c0.2,0.8,0.7,2.2,0.8,2.8c-2,0.8-3.1,3.5-3,5.6
		c0,1,0.3,1.7,0.8,2.3c0.2,0.2,0.3,0.3,0.5,0.3s0.5-0.2,0.5-0.3l0,0c0.2-0.2,0.2-0.5,0-0.7s-0.2-0.3-0.2-0.7c-0.2-1.5,0.8-2.7,2-3.1
		c0.2,1,1.3,6.1,1.5,7.3C341.8,215.8,339.5,215.2,338,213.5z M345.4,214.5c-0.3-1.2-0.5-2.5-0.8-4c-0.2-1-0.3-2.2-0.7-3.1
		c2.2,0,2.8,1.8,3,2.5C347.4,211.7,346.9,213.5,345.4,214.5z"/>
</g>
<g>
	<g>
		<g>
			<path class="st0" d="M463.9,203.4L448.5,188c-0.9-0.9-2.4-0.9-3.3,0c-0.9,0.9-0.9,2.4,0,3.3l15.4,15.4c0.9,0.9,2.4,0.9,3.3,0
				C464.8,205.7,464.8,204.3,463.9,203.4z"/>
		</g>
	</g>
	<g>
		<g>
			<path class="st0" d="M444.1,193.4l-0.1,0.6c-0.8,4.1-2.8,8-5.5,11.1l8.4,8.4c3.1-2.7,7-4.7,11-5.5l0.6-0.1L444.1,193.4z"/>
		</g>
	</g>
	<g>
		<g>
			<path class="st0" d="M436.9,206.8l-5.7,5.7c-1.4,1.4-1.4,3.5,0,4.9l3.3,3.3c1.4,1.4,3.5,1.4,4.9,0l5.7-5.7L436.9,206.8z
				 M437.7,215.8c-0.5,0.5-1.2,0.5-1.6,0s-0.5-1.2,0-1.6l1.6-1.6c0.5-0.5,1.2-0.5,1.6,0s0.5,1.2,0,1.6L437.7,215.8z"/>
		</g>
	</g>
	<g>
		<g>
			<path class="st0" d="M449.9,221.3l1.6-1.6c1.4-1.4,1.4-3.6,0-4.9l-1.2-1.2c-0.6,0.4-1.3,0.9-1.9,1.4l1.4,1.4
				c0.5,0.4,0.5,1.2,0,1.6l-1.6,1.6l-2.4-2.3l-3.3,3.3l5.2,5.1c0.9,0.9,2.4,0.9,3.3,0c0.9-0.9,0.9-2.4,0-3.3L449.9,221.3z"/>
		</g>
	</g>
	<g>
		<g>
			<path class="st0" d="M454.6,187c-0.6,0-1.2,0.5-1.2,1.2v2.3c0,0.6,0.5,1.2,1.2,1.2s1.2-0.5,1.2-1.2v-2.3
				C455.8,187.5,455.2,187,454.6,187z"/>
		</g>
	</g>
	<g>
		<g>
			<path class="st0" d="M463.8,196.2h-2.3c-0.6,0-1.2,0.5-1.2,1.2s0.5,1.2,1.2,1.2h2.3c0.6,0,1.2-0.5,1.2-1.2
				C465,196.7,464.5,196.2,463.8,196.2z"/>
		</g>
	</g>
	<g>
		<g>
			<path class="st0" d="M462.4,189.6c-0.5-0.5-1.2-0.5-1.6,0l-2.3,2.3c-0.5,0.5-0.5,1.2,0,1.6s1.2,0.5,1.6,0l2.3-2.3
				C462.8,190.8,462.8,190.1,462.4,189.6z"/>
		</g>
	</g>
</g>
<g>
	<path class="st0" d="M565.4,224.9c-0.2,0-0.4,0.1-0.5,0.2c-0.1,0.1-0.2,0.3-0.2,0.5c0,0.2,0.1,0.4,0.2,0.5s0.3,0.2,0.5,0.2
		c0.2,0,0.4-0.1,0.5-0.2c0.1-0.1,0.2-0.3,0.2-0.5c0-0.2-0.1-0.4-0.2-0.5C565.8,225,565.6,224.9,565.4,224.9z"/>
	<path class="st0" d="M589.4,203.4c-0.2,0-0.4,0.1-0.5,0.2c-0.1,0.1-0.2,0.3-0.2,0.5c0,0.2,0.1,0.4,0.2,0.5c0.1,0.1,0.3,0.2,0.5,0.2
		s0.4-0.1,0.5-0.2s0.2-0.3,0.2-0.5c0-0.2-0.1-0.4-0.2-0.5S589.6,203.4,589.4,203.4z"/>
	<path class="st0" d="M583.5,197.2c-0.9-0.9-2.4-0.9-3.3,0l-0.4,0.4l-7.4-7.4c-0.6-0.6-1.4-1-2.3-1c-0.9,0-1.7,0.3-2.3,1l-7.9,7.9
		l-3.4-3.4c-0.4-0.4-0.9-0.6-1.5-0.6s-1.1,0.2-1.5,0.6l-2.1,2.1c-0.3,0.3-0.3,0.8,0,1.1s0.8,0.3,1.1,0l2.1-2.1
		c0.2-0.2,0.6-0.2,0.9,0l3.4,3.4l-7.5,7.5c-0.3,0.3-0.3,0.8,0,1.1c0.1,0.1,0.3,0.2,0.5,0.2s0.4-0.1,0.5-0.2l16.5-16.5
		c0.3-0.3,0.8-0.5,1.2-0.5c0.5,0,0.9,0.2,1.2,0.5l7.4,7.4l-5.8,5.8l-2.1-1.9c1.2-0.4,2.1-1.6,2.1-2.9c0-1.7-1.4-3.1-3.1-3.1
		s-3.1,1.4-3.1,3.1c0,0,0,0.1,0,0.1c-1.1-0.2-2.3,0.2-3.2,1l-5.1,5.1c0,0,0,0,0,0c0,0,0,0-0.1,0.1c0,0,0,0,0,0c0,0,0,0,0,0
		c-0.3,0.4-0.5,0.9-0.6,1.5h-2c-0.4,0-0.8,0.3-0.8,0.8v0.8c0,1.4,1.1,2.5,2.5,2.5h1.4l-0.3,1.1c-0.3,0-0.5,0-0.8,0c-3.9,0-7,3.1-7,7
		c0,2.2,1,4.2,2.6,5.5h-1.9c-0.4,0-0.8,0.3-0.8,0.8c0,0.4,0.3,0.8,0.8,0.8h6.2c3.3,0,6.1-2.3,6.8-5.4c0.1,0.2,0.3,0.2,0.6,0.2h4.1
		c0.4,1.5,1.2,2.7,2.4,3.6h-3.5c-0.4,0-0.8,0.3-0.8,0.8c0,0.4,0.3,0.8,0.8,0.8h7.9c3.9,0,7-3.1,7-7c0-3.9-3.1-7-7-7
		c-0.4,0-0.8,0-1.1,0.1l0-0.1c-0.3-1.2-0.5-2.5-0.5-3.8V207h1.3c0.4,0,0.8,0.3,0.8,0.8c0,0.4-0.3,0.8-0.8,0.8
		c-0.4,0-0.8,0.3-0.8,0.8c0,0.4,0.3,0.8,0.8,0.8c1.3,0,2.3-1,2.3-2.3s-1-2.3-2.3-2.3h-1.8l0,0l7.2-7.2c0.3-0.3,0.8-0.3,1.2,0
		l4.5,4.5c0.3,0.3,0.8,0.3,1.1,0s0.3-0.8,0-1.1L583.5,197.2z M565.9,217.3l-1.1-4.8c0-0.2-0.2-0.4-0.4-0.5l-4-2.3
		c-0.5-0.3-0.9-0.8-1-1.4c-0.1-0.3-0.1-0.6,0-0.9l4,1.1l2.3,2.3c0.6,0.6,0.9,1.3,1.1,2l0.7,4.6L565.9,217.3L565.9,217.3z M560,214.3
		c1.8,0.7,3.2,2.4,3.4,4.3H559L560,214.3z M566.8,209.6l-1.9-1.9l2.4-2.4l5.8,4.2c0,0.1,0,0.3,0,0.4h-6
		C567,209.8,566.9,209.7,566.8,209.6z M569.9,198.1c0.8,0,1.5,0.7,1.5,1.5s-0.7,1.5-1.5,1.5s-1.5-0.7-1.5-1.5
		C568.3,198.8,569,198.1,569.9,198.1z M564.7,201.8c0.8-0.8,2.1-0.8,3,0l0.1,0.1c0,0,0,0,0,0l5.3,4.7v1l-5.4-3.9
		c-0.1-0.1-0.3-0.1-0.4-0.1c-0.2,0-0.4,0.1-0.5,0.2l-3.1,3.1l-0.7-0.2l-2.4-0.7L564.7,201.8z M556.7,208.9h1.4
		c0.1,0.3,0.3,0.7,0.5,1h-0.9C557.1,209.9,556.7,209.4,556.7,208.9z M560.6,211.5l2.8,1.6l0.7,2.9c-0.8-1.4-2.2-2.6-3.7-3.1
		L560.6,211.5z M558,224.9c-3,0-5.5-2.5-5.5-5.5c0-3,2.5-5.5,5.5-5.5c0.2,0,0.3,0,0.5,0l-1.2,5.3c-0.1,0.2,0,0.5,0.1,0.6
		c0.1,0.2,0.4,0.3,0.6,0.3h5.4C563.1,222.9,560.8,224.9,558,224.9z M566.2,219.8v-1h1.6c0.1,0,0.2,0,0.3,0c0.1,0.1,0.2,0.1,0.3,0.1
		c0.4,0.2,0.7,0.5,0.9,0.9L566.2,219.8L566.2,219.8z M576.3,214c3,0,5.5,2.5,5.5,5.5s-2.5,5.5-5.5,5.5c-2.6,0-4.9-1.9-5.4-4.4
		c0,0,0,0,0,0v-0.1c0-0.3,0-0.6-0.1-0.8c0,0,0-0.1,0-0.1c0-2.2,1.3-4.2,3.3-5l1.5,5.2c0.1,0.3,0.4,0.6,0.7,0.6c0.1,0,0.1,0,0.2,0
		c0.4-0.1,0.6-0.5,0.5-0.9l-1.5-5.2C575.8,214,576,214,576.3,214z M569.5,217.8c-0.1-0.1-0.3-0.2-0.4-0.2l-0.8-5.1c0,0,0,0,0,0
		c-0.1-0.4-0.2-0.7-0.3-1h5.3c0.1,0.5,0.2,1,0.3,1.5l0,0.1C571.6,213.8,570,215.6,569.5,217.8z"/>
	<path class="st0" d="M580.9,195.1l6.8,0c1.4,0,2.5-1.1,2.5-2.5c0-1.4-1.1-2.5-2.5-2.5c0,0-0.1,0-0.1,0c-0.5-1.6-2-2.8-3.7-2.8
		c-1,0-2,0.4-2.7,1.1c-0.6,0.6-1,1.3-1.1,2.1c-0.9,0.3-1.5,1.2-1.5,2.2C578.5,194,579.6,195.1,580.9,195.1z M580.8,191.9
		c0.4,0,0.7-0.4,0.7-0.7c0-1.3,1.1-2.3,2.3-2.3c1.2,0,2.3,1,2.3,2.2c0,0.2,0.2,0.5,0.4,0.6c0.2,0.1,0.5,0.1,0.7,0
		c0.1-0.1,0.3-0.1,0.4-0.1c0.5,0,1,0.4,1,1s-0.4,1-1,1l-6.8,0l0,0c-0.5,0-0.8-0.4-0.8-0.8C580,192.3,580.4,191.9,580.8,191.9z"/>
</g>
<g>
	<g>
		<g>
			<path class="st0" d="M729.6,206.2c0,0-0.1-0.1-0.1-0.1c-0.3-0.3-0.8-0.3-1.1,0s-0.3,0.8,0,1.1c0,0,0,0,0,0
				c0.2,0.2,0.4,0.3,0.6,0.3c0.2,0,0.4-0.1,0.5-0.2C729.9,207,729.9,206.5,729.6,206.2z"/>
		</g>
	</g>
	<g>
		<g>
			<path class="st0" d="M733.5,218.3c0-0.6-0.2-1.2-0.7-1.6c-0.1-0.1-0.2-0.3-0.2-0.5c0-0.2,0.1-0.4,0.2-0.5c0.4-0.4,0.7-1,0.7-1.6
				s-0.2-1.2-0.7-1.6c-0.1-0.1-0.2-0.3-0.2-0.5c0-0.2,0.1-0.4,0.2-0.5c0.3-0.3,0.3-0.8,0-1.1s-0.8-0.3-1.1,0c-0.4,0.4-0.7,1-0.7,1.6
				s0.2,1.2,0.7,1.6c0.1,0.1,0.2,0.3,0.2,0.5c0,0.2-0.1,0.4-0.2,0.5c-0.4,0.4-0.7,1-0.7,1.6s0.2,1.2,0.7,1.6
				c0.1,0.1,0.2,0.3,0.2,0.5c0,0.2-0.1,0.4-0.2,0.5c-0.4,0.4-0.7,1-0.7,1.6c0,0.1,0,0.2,0,0.3h-0.9c0-0.1,0-0.2,0-0.3
				c0-0.6-0.2-1.2-0.7-1.6c-0.1-0.1-0.2-0.3-0.2-0.5c0-0.2,0.1-0.4,0.2-0.5c0.4-0.4,0.7-1,0.7-1.6s-0.2-1.2-0.7-1.6
				c-0.1-0.1-0.2-0.3-0.2-0.5s0.1-0.4,0.2-0.5c0.4-0.4,0.7-1,0.7-1.6s-0.2-1.2-0.7-1.6c-0.2-0.2-0.3-0.5-0.2-0.7
				c0.1-0.4-0.1-0.8-0.5-1c-0.4-0.1-0.8,0.1-1,0.5c-0.2,0.8,0,1.7,0.6,2.3c0.1,0.1,0.2,0.3,0.2,0.5c0,0.2-0.1,0.4-0.2,0.5
				c-0.4,0.4-0.7,1-0.7,1.6s0.2,1.2,0.7,1.6c0.1,0.1,0.2,0.3,0.2,0.5c0,0.2-0.1,0.4-0.2,0.5c-0.4,0.4-0.7,1-0.7,1.6s0.2,1.2,0.7,1.6
				c0.1,0.1,0.2,0.3,0.2,0.5c0,0.1,0,0.2-0.1,0.3h-2.5c0-0.1-0.1-0.2-0.1-0.3c0-0.2,0.1-0.4,0.2-0.5c0.4-0.4,0.7-1,0.7-1.6
				s-0.2-1.2-0.7-1.6c-0.1-0.1-0.2-0.3-0.2-0.5c0-0.2,0.1-0.4,0.2-0.5c0.4-0.4,0.7-1,0.7-1.6s-0.2-1.2-0.7-1.6
				c-0.1-0.1-0.2-0.3-0.2-0.5c0-0.2,0.1-0.4,0.2-0.5c0.3-0.3,0.3-0.8,0-1.1c-0.3-0.3-0.8-0.3-1.1,0c-0.4,0.4-0.7,1-0.7,1.6
				s0.2,1.2,0.7,1.6c0.1,0.1,0.2,0.3,0.2,0.5c0,0.2-0.1,0.4-0.2,0.5c-0.4,0.4-0.7,1-0.7,1.6s0.2,1.2,0.7,1.6
				c0.1,0.1,0.2,0.3,0.2,0.5c0,0.2-0.1,0.4-0.2,0.5c-0.4,0.4-0.7,1-0.7,1.6c0,0.1,0,0.2,0,0.3h-0.3c-0.4,0-0.8,0.3-0.8,0.8
				s0.3,0.8,0.8,0.8h8.5c0.4,0,0.8-0.3,0.8-0.8s-0.3-0.8-0.8-0.8h0c0-0.1-0.1-0.2-0.1-0.3c0-0.2,0.1-0.4,0.2-0.5
				C733.3,219.5,733.5,218.9,733.5,218.3z"/>
		</g>
	</g>
	<g>
		<g>
			<path class="st0" d="M703.8,224.9h-0.6c0-0.1-0.1-0.2-0.1-0.3c0-0.2,0.1-0.4,0.2-0.5c0.4-0.4,0.7-1,0.7-1.6s-0.2-1.2-0.7-1.6
				c-0.1-0.1-0.2-0.3-0.2-0.5c0-0.2,0.1-0.4,0.2-0.5c0.4-0.4,0.7-1,0.7-1.6s-0.2-1.2-0.7-1.6c-0.1-0.1-0.2-0.3-0.2-0.5
				c0-0.2,0.1-0.4,0.2-0.5c0.3-0.3,0.3-0.8,0-1.1c-0.3-0.3-0.8-0.3-1.1,0c-0.4,0.4-0.7,1-0.7,1.6s0.2,1.2,0.7,1.6
				c0.1,0.1,0.2,0.3,0.2,0.5s-0.1,0.4-0.2,0.5c-0.4,0.4-0.7,1-0.7,1.6s0.2,1.2,0.7,1.6c0.1,0.1,0.2,0.3,0.2,0.5s-0.1,0.4-0.2,0.5
				c-0.4,0.4-0.7,1-0.7,1.6c0,0.1,0,0.2,0,0.3h-0.9c0-0.1,0-0.2,0-0.3c0-0.6-0.2-1.2-0.7-1.6c-0.1-0.1-0.2-0.3-0.2-0.5
				c0-0.2,0.1-0.4,0.2-0.5c0.4-0.4,0.7-1,0.7-1.6s-0.2-1.2-0.7-1.6c-0.1-0.1-0.2-0.3-0.2-0.5c0-0.2,0.1-0.4,0.2-0.5
				c0.4-0.4,0.7-1,0.7-1.6s-0.2-1.2-0.7-1.6c-0.1-0.1-0.2-0.3-0.2-0.5c0-0.2,0.1-0.4,0.2-0.5c0.4-0.4,0.7-1,0.7-1.6
				s-0.2-1.2-0.7-1.6c-0.3-0.3-0.8-0.3-1.1,0c-0.3,0.3-0.3,0.8,0,1.1c0.1,0.1,0.2,0.3,0.2,0.5c0,0.2-0.1,0.4-0.2,0.5
				c-0.4,0.4-0.7,1-0.7,1.6s0.2,1.2,0.7,1.6c0.1,0.1,0.2,0.3,0.2,0.5c0,0.2-0.1,0.4-0.2,0.5c-0.4,0.4-0.7,1-0.7,1.6s0.2,1.2,0.7,1.6
				c0.1,0.1,0.2,0.3,0.2,0.5c0,0.2-0.1,0.4-0.2,0.5c-0.4,0.4-0.7,1-0.7,1.6s0.2,1.2,0.7,1.6c0.1,0.1,0.2,0.3,0.2,0.5
				c0,0.1,0,0.2-0.1,0.3h-2.5c0-0.1-0.1-0.2-0.1-0.3c0-0.2,0.1-0.4,0.2-0.5c0.4-0.4,0.7-1,0.7-1.6s-0.2-1.2-0.7-1.6
				c-0.1-0.1-0.2-0.3-0.2-0.5c0-0.2,0.1-0.4,0.2-0.5c0.4-0.4,0.7-1,0.7-1.6s-0.2-1.2-0.7-1.6c-0.1-0.1-0.2-0.3-0.2-0.5
				c0-0.2,0.1-0.4,0.2-0.5c0.3-0.3,0.3-0.8,0-1.1s-0.8-0.3-1.1,0c-0.4,0.4-0.7,1-0.7,1.6s0.2,1.2,0.7,1.6c0.1,0.1,0.2,0.3,0.2,0.5
				s-0.1,0.4-0.2,0.5c-0.4,0.4-0.7,1-0.7,1.6s0.2,1.2,0.7,1.6c0.1,0.1,0.2,0.3,0.2,0.5s-0.1,0.4-0.2,0.5c-0.4,0.4-0.7,1-0.7,1.6
				c0,0.1,0,0.2,0,0.3h-0.3c-0.4,0-0.8,0.3-0.8,0.8c0,0.4,0.3,0.8,0.8,0.8h9.1c0.4,0,0.8-0.3,0.8-0.8
				C704.6,225.2,704.3,224.9,703.8,224.9z"/>
		</g>
	</g>
	<g>
		<g>
			<path class="st0" d="M713.7,218.8c-0.4,0-0.8,0.1-1.1,0.2c-0.6-0.6-1.5-1-2.4-1c-1.9,0-3.4,1.5-3.4,3.4c0,0.4,0.3,0.8,0.8,0.8
				h8.1c0.4,0,0.8-0.3,0.8-0.8C716.4,220,715.2,218.8,713.7,218.8z M708.5,220.7c0.3-0.7,1-1.1,1.7-1.1c0.6,0,1.2,0.3,1.6,0.8
				c0.1,0.1,0.2,0.2,0.3,0.3L708.5,220.7L708.5,220.7z M712.8,220.7L712.8,220.7c0.1,0,0.1-0.1,0.2-0.1c0.2-0.2,0.5-0.3,0.8-0.3
				c0.3,0,0.7,0.2,0.9,0.4L712.8,220.7L712.8,220.7z"/>
		</g>
	</g>
	<g>
		<g>
			<path class="st0" d="M720.9,222.2c-1.9,0-3.5,1.6-3.5,3.5c0,0.4,0.3,0.8,0.8,0.8h5.4c0.4,0,0.8-0.3,0.8-0.8
				C724.4,223.8,722.8,222.2,720.9,222.2z M719.1,224.9c0.3-0.7,1-1.2,1.8-1.2s1.5,0.5,1.8,1.2H719.1z"/>
		</g>
	</g>
	<g>
		<g>
			<path class="st0" d="M729.1,198.4c-1.2-2.2-3.3-3.7-5.6-4.3c0,0,0-0.1,0-0.1c-0.1-0.1-1.4-2.7-4.6-2.8c-0.2,0-0.4,0.1-0.6,0.2
				s-0.2,0.3-0.2,0.6v2.2c-1.8,0.6-3.5,1.8-4.6,3.4l-3.1-2.7c-0.2-0.2-0.6-0.3-0.8-0.1s-0.5,0.4-0.5,0.7v6.7c0,0.3,0.2,0.6,0.5,0.7
				c0.1,0,0.2,0.1,0.3,0.1c0.2,0,0.4-0.1,0.5-0.2l3.1-2.7c1.2,1.6,2.8,2.8,4.6,3.4v2.2c0,0.2,0.1,0.4,0.2,0.6
				c0.1,0.1,0.3,0.2,0.5,0.2c0,0,0,0,0,0c3.2-0.1,4.6-2.7,4.6-2.8c0,0,0,0,0-0.1c2.3-0.6,4.4-2.2,5.7-4.4
				C729.3,199,729.3,198.7,729.1,198.4z M710.6,200.5v-3.3l1.8,1.6L710.6,200.5z M719.6,192.9c0.8,0.2,1.3,0.5,1.7,0.9
				c-0.1,0-0.2,0-0.3,0c-0.5,0-1,0-1.4,0.1V192.9z M719.6,204.8v-1c0.5,0.1,0.9,0.1,1.4,0.1c0.1,0,0.2,0,0.3,0
				C720.9,204.2,720.3,204.6,719.6,204.8z M723.3,202c-0.7,0.2-1.5,0.3-2.2,0.3c-2.6,0-5.1-1.3-6.5-3.5c1.4-2.2,3.9-3.5,6.5-3.5
				c0.8,0,1.5,0.1,2.2,0.3c-0.7,0.9-1,2-1,3.2C722.2,200,722.6,201.1,723.3,202z M724.7,201.4c-0.6-0.7-1-1.6-1-2.6s0.3-1.9,1-2.6
				c1.1,0.6,2.1,1.5,2.8,2.6C726.8,199.9,725.9,200.8,724.7,201.4z"/>
		</g>
	</g>
	<g>
		<g>
			<path class="st0" d="M726,198.3c-0.1-0.1-0.3-0.2-0.5-0.2c-0.2,0-0.4,0.1-0.5,0.2c-0.1,0.1-0.2,0.3-0.2,0.5s0.1,0.4,0.2,0.5
				c0.1,0.1,0.3,0.2,0.5,0.2c0.2,0,0.4-0.1,0.5-0.2c0.1-0.1,0.2-0.3,0.2-0.5S726.1,198.4,726,198.3z"/>
		</g>
	</g>
	<g>
		<g>
			<path class="st0" d="M714.4,209.7c-0.9-1.5-2.5-2.5-4.3-2.5c-1.5,0-2.8,0.6-3.8,1.7l-1.2-1.1c-0.2-0.2-0.6-0.3-0.8-0.1
				s-0.5,0.4-0.5,0.7v3.3c0,0.3,0.2,0.6,0.5,0.7c0.1,0,0.2,0.1,0.3,0.1c0.2,0,0.4-0.1,0.5-0.2l1.2-1.1c0.9,1.1,2.3,1.7,3.8,1.7
				c1.8,0,3.4-1,4.3-2.5C714.5,210.2,714.5,209.9,714.4,209.7z M710.1,211.4c-1.1,0-2.1-0.5-2.7-1.3c0.6-0.8,1.6-1.3,2.7-1.3
				s2.1,0.5,2.7,1.3C712.2,210.9,711.2,211.4,710.1,211.4z"/>
		</g>
	</g>
	<g>
		<g>
			<path class="st0" d="M704.5,200.5c-0.9-1.5-2.5-2.5-4.3-2.5c-1.5,0-2.8,0.6-3.8,1.7l-1.2-1.1c-0.2-0.2-0.6-0.3-0.8-0.1
				s-0.5,0.4-0.5,0.7v3.3c0,0.3,0.2,0.6,0.5,0.7c0.1,0,0.2,0.1,0.3,0.1c0.2,0,0.4-0.1,0.5-0.2l1.2-1.1c0.9,1.1,2.3,1.7,3.8,1.7
				c1.8,0,3.4-1,4.3-2.5C704.6,201.1,704.6,200.8,704.5,200.5z M700.2,202.2c-1.1,0-2.1-0.5-2.7-1.3c0.6-0.8,1.6-1.3,2.7-1.3
				s2.1,0.5,2.7,1.3C702.3,201.7,701.3,202.2,700.2,202.2z"/>
		</g>
	</g>
	<g>
		<g>
			<path class="st0" d="M718.8,216.8c-0.1-0.1-0.3-0.2-0.5-0.2s-0.4,0.1-0.5,0.2c-0.1,0.1-0.2,0.3-0.2,0.5s0.1,0.4,0.2,0.5
				c0.1,0.1,0.3,0.2,0.5,0.2s0.4-0.1,0.5-0.2c0.1-0.1,0.2-0.3,0.2-0.5C719,217.1,718.9,216.9,718.8,216.8z"/>
		</g>
	</g>
	<g>
		<g>
			<path class="st0" d="M700.1,207.4c-0.1-0.1-0.3-0.2-0.5-0.2s-0.4,0.1-0.5,0.2c-0.1,0.1-0.2,0.3-0.2,0.5c0,0.2,0.1,0.4,0.2,0.5
				c0.1,0.1,0.3,0.2,0.5,0.2s0.4-0.1,0.5-0.2c0.1-0.1,0.2-0.3,0.2-0.5S700.2,207.5,700.1,207.4z"/>
		</g>
	</g>
	<g>
		<g>
			<path class="st0" d="M717.1,208.4c-0.1-0.1-0.3-0.2-0.5-0.2s-0.4,0.1-0.5,0.2c-0.1,0.1-0.2,0.3-0.2,0.5s0.1,0.4,0.2,0.5
				c0.1,0.1,0.3,0.2,0.5,0.2s0.4-0.1,0.5-0.2c0.1-0.1,0.2-0.3,0.2-0.5C717.4,208.7,717.3,208.5,717.1,208.4z"/>
		</g>
	</g>
	<g>
		<g>
			<path class="st0" d="M705.2,196.2c-0.1-0.1-0.3-0.2-0.5-0.2c-0.2,0-0.4,0.1-0.5,0.2c-0.1,0.1-0.2,0.3-0.2,0.5s0.1,0.4,0.2,0.5
				c0.1,0.1,0.3,0.2,0.5,0.2c0.2,0,0.4-0.1,0.5-0.2c0.1-0.1,0.2-0.3,0.2-0.5S705.3,196.4,705.2,196.2z"/>
		</g>
	</g>
	<g>
		<g>
			<path class="st0" d="M730,193.5c-0.1-0.1-0.3-0.2-0.5-0.2c-0.2,0-0.4,0.1-0.5,0.2c-0.1,0.1-0.2,0.3-0.2,0.5s0.1,0.4,0.2,0.5
				c0.1,0.1,0.3,0.2,0.5,0.2c0.2,0,0.4-0.1,0.5-0.2c0.1-0.1,0.2-0.3,0.2-0.5C730.2,193.9,730.1,193.7,730,193.5z"/>
		</g>
	</g>
	<g>
		<g>
			<path class="st0" d="M732,190.7c-0.1-0.1-0.3-0.2-0.5-0.2s-0.4,0.1-0.5,0.2c-0.1,0.1-0.2,0.3-0.2,0.5s0.1,0.4,0.2,0.5
				c0.1,0.1,0.3,0.2,0.5,0.2s0.4-0.1,0.5-0.2c0.1-0.1,0.2-0.3,0.2-0.5S732.1,190.8,732,190.7z"/>
		</g>
	</g>
	<g>
		<g>
			<path class="st0" d="M729.5,187.1c-0.1-0.1-0.3-0.2-0.5-0.2s-0.4,0.1-0.5,0.2c-0.1,0.1-0.2,0.3-0.2,0.5s0.1,0.4,0.2,0.5
				c0.1,0.1,0.3,0.2,0.5,0.2s0.4-0.1,0.5-0.2c0.1-0.1,0.2-0.3,0.2-0.5C729.8,187.5,729.7,187.3,729.5,187.1z"/>
		</g>
	</g>
	<g>
		<g>
			<path class="st0" d="M732.4,198.3c-0.1-0.1-0.3-0.2-0.5-0.2c-0.2,0-0.4,0.1-0.5,0.2c-0.1,0.1-0.2,0.3-0.2,0.5
				c0,0.2,0.1,0.4,0.2,0.5c0.1,0.1,0.3,0.2,0.5,0.2c0.2,0,0.4-0.1,0.5-0.2c0.1-0.1,0.2-0.3,0.2-0.5
				C732.6,198.6,732.5,198.4,732.4,198.3z"/>
		</g>
	</g>
</g>
<path class="st1" d="M358.9,329.6c0.4-0.4,0.4-1.1,0-1.6c-0.4-0.4-1.1-0.4-1.5,0l-7.9,7.9v-26.1c0-0.6-0.5-1.1-1.1-1.1
	s-1.1,0.5-1.1,1.1v26.1l-7.9-7.9c-0.4-0.4-1.1-0.4-1.6,0c-0.4,0.4-0.4,1.1,0,1.6l9.8,9.8c0.4,0.4,1.1,0.4,1.6,0L358.9,329.6z
	 M366.6,336.8c0-0.6,0.5-1.1,1.1-1.1s1.1,0.5,1.1,1.1v10.7c0,0.6-0.5,1.1-1.1,1.1H329c-0.6,0-1.1-0.5-1.1-1.1v-10.7
	c0-0.6,0.5-1.1,1.1-1.1s1.1,0.5,1.1,1.1v9.6h36.6L366.6,336.8L366.6,336.8z"/>
<path class="st2" d="M431.3,329.9c0.4-0.4,0.4-1.1,0-1.6c-0.4-0.4-1.1-0.4-1.5,0l-7.9,7.9v-26.1c0-0.6-0.5-1.1-1.1-1.1
	s-1.1,0.5-1.1,1.1v26.1l-7.9-7.9c-0.4-0.4-1.1-0.4-1.6,0c-0.4,0.4-0.4,1.1,0,1.6l9.8,9.8c0.4,0.4,1.1,0.4,1.6,0L431.3,329.9z
	 M439,337.1c0-0.6,0.5-1.1,1.1-1.1s1.1,0.5,1.1,1.1v10.7c0,0.6-0.5,1.1-1.1,1.1h-38.7c-0.6,0-1.1-0.5-1.1-1.1v-10.7
	c0-0.6,0.5-1.1,1.1-1.1s1.1,0.5,1.1,1.1v9.6H439V337.1z"/>
<path class="st3" d="M112.2,334.1c0.4-0.4,0.4-1.1,0-1.6c-0.4-0.4-1.1-0.4-1.5,0l-7.9,7.9v-26.1c0-0.6-0.5-1.1-1.1-1.1
	s-1.1,0.5-1.1,1.1v26.1l-7.9-7.9c-0.4-0.4-1.1-0.4-1.6,0c-0.4,0.4-0.4,1.1,0,1.6l9.8,9.8c0.4,0.4,1.1,0.4,1.6,0L112.2,334.1z
	 M119.9,341.2c0-0.6,0.5-1.1,1.1-1.1s1.1,0.5,1.1,1.1v10.7c0,0.6-0.5,1.1-1.1,1.1H82.3c-0.6,0-1.1-0.5-1.1-1.1v-10.7
	c0-0.6,0.5-1.1,1.1-1.1s1.1,0.5,1.1,1.1v9.6h36.6L119.9,341.2L119.9,341.2z"/>
<rect x="634.7" y="298" class="st4" width="55" height="55"/>
<path class="st0" d="M672.3,324.1L655,306.8c-0.8-0.8-2.1-0.8-2.9,0c-0.8,0.8-0.8,2.1,0,2.9l15.9,15.9l-15.9,15.9
	c-0.8,0.8-0.8,2.1,0,2.9c0.4,0.4,0.9,0.6,1.4,0.6c0.5,0,1.1-0.2,1.4-0.6l17.3-17.3c0.4-0.4,0.6-0.9,0.6-1.4
	C672.9,325,672.7,324.5,672.3,324.1z"/>
<rect x="726.2" y="298" class="st4" width="55" height="55"/>
<path class="st0" d="M743.6,327l17.3,17.3c0.8,0.8,2.1,0.8,2.9,0c0.8-0.8,0.8-2.1,0-2.9L748,325.5l15.9-15.9c0.8-0.8,0.8-2.1,0-2.9
	c-0.4-0.4-0.9-0.6-1.4-0.6c-0.5,0-1.1,0.2-1.4,0.6l-17.3,17.3c-0.4,0.4-0.6,0.9-0.6,1.4C743,326.1,743.3,326.6,743.6,327z"/>
<g>
	<polygon class="st0" points="110,87.8 114,87.8 114.3,80.9 109.8,81.4 	"/>
	<polygon class="st0" points="82.3,80.7 81.7,71.6 87.7,71.5 88.2,78.3 89.3,78.3 89.5,72.6 95.3,71.9 96.6,78.8 99.1,78.5 98.5,71 
		105.1,71.1 104.8,77.4 107.1,78.1 107.2,70.8 115.5,71.1 114,79.1 	"/>
	<polygon class="st0" points="82,81.9 81.9,88.4 87.5,86.5 87.6,81.9 	"/>
	<polygon class="st0" points="88.7,81.6 88.5,87.1 98.8,87.7 97.6,81 	"/>
	<polygon class="st0" points="100,88.2 99,81.2 108,81.5 108.7,87.6 	"/>
	<polygon class="st0" points="82.3,89.8 87.2,87.9 99,88.9 97.8,100.3 83.6,100.5 	"/>
	<polygon class="st0" points="99.9,88.9 98.8,100.1 107.1,100.2 105.7,89.1 	"/>
	<polygon class="st0" points="107.3,89.4 107.9,100.4 114.4,99.9 114.1,88.8 109.3,88.6 	"/>
	<polygon class="st0" points="95.4,109.3 114.7,107.5 114.2,101.4 94.8,101.4 95.6,105.5 	"/>
	<polygon class="st0" points="94.3,101.2 94.7,108.1 86.9,109.5 83.6,102 	"/>
</g>
<g>
	<path class="st0" d="M242.9,72.4h-25.5c-1.9,0-3.5,1.6-3.5,3.5v2.3h-1.2c-1.9,0-3.5,1.6-3.5,3.5v23.2c0,2.6,2.1,4.6,4.6,4.6h27.8
		c2.6,0,4.6-2.1,4.6-4.6v-29C246.3,74,244.8,72.4,242.9,72.4L242.9,72.4z M244,104.9c0,1.3-1,2.3-2.3,2.3h-27.8
		c-1.3,0-2.3-1-2.3-2.3V81.7c0-0.6,0.5-1.2,1.2-1.2h1.2v23.2c0,0.6,0.5,1.2,1.2,1.2s1.2-0.5,1.2-1.2V75.9c0-0.6,0.5-1.2,1.2-1.2
		h25.5c0.6,0,1.2,0.5,1.2,1.2L244,104.9L244,104.9z"/>
	<path class="st0" d="M231.8,87.5h9.3c0.3,0,0.6-0.3,0.6-0.6c0-0.3-0.3-0.6-0.6-0.6h-9.3c-0.3,0-0.6,0.3-0.6,0.6
		S231.5,87.5,231.8,87.5L231.8,87.5z"/>
	<path class="st0" d="M231.8,84h9.3c0.3,0,0.6-0.3,0.6-0.6c0-0.3-0.3-0.6-0.6-0.6h-9.3c-0.3,0-0.6,0.3-0.6,0.6
		C231.3,83.8,231.5,84,231.8,84L231.8,84z"/>
	<path class="st0" d="M231.8,80.6h9.3c0.3,0,0.6-0.3,0.6-0.6c0-0.3-0.3-0.6-0.6-0.6h-9.3c-0.3,0-0.6,0.3-0.6,0.6
		C231.3,80.3,231.5,80.6,231.8,80.6L231.8,80.6z"/>
	<path class="st0" d="M228.4,103.7h-9.3c-0.3,0-0.6,0.3-0.6,0.6s0.3,0.6,0.6,0.6h9.3c0.3,0,0.6-0.3,0.6-0.6
		C228.9,104,228.7,103.7,228.4,103.7L228.4,103.7z"/>
	<path class="st0" d="M228.4,100.3h-9.3c-0.3,0-0.6,0.3-0.6,0.6c0,0.3,0.3,0.6,0.6,0.6h9.3c0.3,0,0.6-0.3,0.6-0.6
		C228.9,100.5,228.7,100.3,228.4,100.3L228.4,100.3z"/>
	<path class="st0" d="M228.4,96.8h-9.3c-0.3,0-0.6,0.3-0.6,0.6c0,0.3,0.3,0.6,0.6,0.6h9.3c0.3,0,0.6-0.3,0.6-0.6
		C228.9,97.1,228.7,96.8,228.4,96.8L228.4,96.8z"/>
	<path class="st0" d="M241.1,103.7h-9.3c-0.3,0-0.6,0.3-0.6,0.6s0.3,0.6,0.6,0.6h9.3c0.3,0,0.6-0.3,0.6-0.6
		C241.7,104,241.4,103.7,241.1,103.7L241.1,103.7z"/>
	<path class="st0" d="M241.1,100.3h-9.3c-0.3,0-0.6,0.3-0.6,0.6c0,0.3,0.3,0.6,0.6,0.6h9.3c0.3,0,0.6-0.3,0.6-0.6
		C241.7,100.5,241.4,100.3,241.1,100.3L241.1,100.3z"/>
	<path class="st0" d="M241.1,96.8h-9.3c-0.3,0-0.6,0.3-0.6,0.6c0,0.3,0.3,0.6,0.6,0.6h9.3c0.3,0,0.6-0.3,0.6-0.6
		C241.7,97.1,241.4,96.8,241.1,96.8L241.1,96.8z"/>
	<path class="st0" d="M241.1,89.8h-22c-0.3,0-0.6,0.3-0.6,0.6c0,0.3,0.3,0.6,0.6,0.6h22c0.3,0,0.6-0.3,0.6-0.6
		C241.7,90.1,241.4,89.8,241.1,89.8L241.1,89.8z"/>
	<path class="st0" d="M241.1,93.3h-22c-0.3,0-0.6,0.3-0.6,0.6c0,0.3,0.3,0.6,0.6,0.6h22c0.3,0,0.6-0.3,0.6-0.6
		C241.7,93.6,241.4,93.3,241.1,93.3L241.1,93.3z"/>
	<path class="st0" d="M219.7,87.5h8.1c0.6,0,1.2-0.5,1.2-1.2v-8.1c0-0.6-0.5-1.2-1.2-1.2h-8.1c-0.6,0-1.2,0.5-1.2,1.2v8.1
		C218.5,87,219,87.5,219.7,87.5L219.7,87.5z M220.8,79.4h5.8v5.8h-5.8V79.4z"/>
</g>
<g>
	<path class="st0" d="M375,96.3l-0.6,3.4c-0.1,0.5,0.1,0.9,0.5,1.2c0.4,0.3,0.9,0.3,1.3,0.1l3.1-1.6l3.1,1.6
		c0.2,0.1,0.4,0.1,0.6,0.1c0.3,0,0.5-0.1,0.7-0.2c0.4-0.3,0.6-0.7,0.5-1.2l-0.6-3.4l2.5-2.4c0.3-0.3,0.5-0.8,0.3-1.3
		c-0.1-0.4-0.5-0.8-1-0.8l-3.4-0.5l-1.5-3.1c-0.2-0.4-0.6-0.7-1.1-0.7c-0.5,0-0.9,0.3-1.1,0.7l-1.5,3.1l-3.4,0.5
		c-0.5,0.1-0.9,0.4-1,0.8c-0.1,0.4,0,0.9,0.3,1.3L375,96.3z"/>
	<path class="st0" d="M394.1,76.4h-3.9v-2.2c0-1-0.8-1.8-1.8-1.8H388c-1,0-1.8,0.8-1.8,1.8v2.2h-13.9v-2.2c0-1-0.8-1.8-1.8-1.8h-0.3
		c-1,0-1.8,0.8-1.8,1.8v2.2h-3.9c-2.1,0-3.7,1.7-3.7,3.7v25.8c0,2,1.7,3.7,3.7,3.7h29.5c2.1,0,3.7-1.7,3.7-3.7V80.1
		C397.8,78,396.1,76.4,394.1,76.4 M393.6,105.4H365V85.3h28.6V105.4z"/>
</g>
<path class="st0" d="M521.2,74.3c-2.3,0.9-4.3,2.3-6,4c-1.7,1.7-3.1,3.8-4,6c-0.9,2.2-1.3,4.5-1.3,6.9c0,2.4,0.5,4.7,1.3,6.9
	c0.9,2.3,2.3,4.3,4,6c1.7,1.7,3.8,3.1,6,4c2.2,0.9,4.5,1.3,6.9,1.3c2.4,0,4.7-0.4,6.9-1.3c2.3-0.9,4.3-2.3,6-4c1.7-1.7,3.1-3.8,4-6
	c0.9-2.2,1.3-4.5,1.3-6.9c0-2.4-0.5-4.7-1.3-6.9c-0.9-2.3-2.3-4.3-4-6c-1.7-1.7-3.8-3.1-6-4c-2.2-0.9-4.5-1.3-6.9-1.3
	C525.7,73,523.3,73.4,521.2,74.3L521.2,74.3z M514.3,99c-0.9-0.6-1.7-1.2-2.4-1.9c-1.1-3.1-1.3-6.4-0.6-9.6c0.3-0.7,0.7-1.3,1.2-1.9
	c0.1-0.2,0.3-0.4,0.4-0.6l4.1,2.4v0.1c0,2.2,0.2,4.4,0.7,6.6c0,0,0,0,0,0l-3.2,5C514.5,99,514.4,99,514.3,99L514.3,99z M526.6,107.4
	c0.7,0.4,1.4,0.7,2.2,0.9c-3.2,0.1-6.4-0.6-9.3-2.2l6.9,1.2C526.5,107.4,526.5,107.4,526.6,107.4L526.6,107.4z M526.6,106.2
	l-8.2-1.5c-1-1.2-1.8-2.4-2.5-3.7c-0.2-0.3-0.4-0.7-0.6-1l3.2-5c0.1,0,0.1,0,0.2,0.1c2,0.5,4,0.9,6.1,1.2c0.1,0,0.2,0,0.3,0l3.8,6.6
	c-0.7,0.9-1.3,1.9-2,2.8C526.8,105.9,526.7,106,526.6,106.2L526.6,106.2z M540.1,103.4c-0.7,0.7-1.3,1.2-2.1,1.8
	c-0.1-1-0.3-1.9-0.6-2.8l4.1-7.6c1.1-0.5,2.2-1.1,3.2-1.8c0.1-0.1,0.2-0.2,0.3-0.3C544.8,96.5,543.1,100.4,540.1,103.4L540.1,103.4z
	 M540,93.5c0.2,0.3,0.3,0.6,0.5,0.9l-3.9,7.4c0,0,0,0-0.1,0c-2.1,0.4-4.3,0.6-6.5,0.6l-3.9-6.8c0.6-1.1,1.2-2.3,1.8-3.4
	c0.4-0.8,0.8-1.6,1.2-2.3l8.2-0.8C538.2,90.4,539.1,91.9,540,93.5L540,93.5z M538.3,84.7c-0.4,1-0.8,2-1.2,3l-7.9,0.8
	c-0.1-0.1-0.2-0.2-0.3-0.4c-0.9-1.1-1.9-2.1-2.8-3.2c0,0,0,0,0,0c-0.4-0.4-0.8-0.8-1.1-1.1l2.2-6.7c0.2,0,0.3-0.1,0.5-0.1
	c1.2-0.1,2.4-0.3,3.6-0.3c0.7,0,1.5-0.1,2.2,0l5.5,6.2C538.7,83.6,538.5,84.2,538.3,84.7L538.3,84.7z M540.1,79.2
	c1.5,1.5,2.7,3.2,3.5,5.1c-1-0.7-2.1-1.3-3.3-1.8c-0.2-0.1-0.4-0.1-0.5-0.2l-5.4-6.1c0-0.3,0.1-0.5,0.1-0.8
	C536.6,76.2,538.5,77.5,540.1,79.2L540.1,79.2z M522.5,75.1C522.6,75.1,522.6,75.1,522.5,75.1c1.3,0.5,2.4,1.1,3.5,1.8l-2.1,6.2
	c0,0,0,0,0,0c-0.4,0.2-0.9,0.3-1.3,0.5c-1.7,0.8-3.4,1.6-5,2.7l-4.1-2.4c0-0.1,0-0.3,0.1-0.4c0.3-0.7,0.5-1.5,0.9-2.2
	c0.2-0.6,0.5-1.1,0.8-1.6c0.2-0.2,0.4-0.4,0.6-0.6C517.9,77.2,520.2,75.8,522.5,75.1C522.6,75.1,522.6,75.1,522.5,75.1L522.5,75.1z"
	/>
<g>
	<g>
		<path class="st0" d="M125,226.4H83.9c-0.6,0-1.1-0.3-1.4-0.8s-0.3-1.2,0-1.7l20.5-34.7c0.3-0.5,0.8-0.8,1.4-0.8s1.1,0.3,1.4,0.8
			l20.5,34.7c0.3,0.5,0.3,1.2,0,1.7C126.1,226.1,125.6,226.4,125,226.4z M86.9,223.1h35.2l-17.6-29.8L86.9,223.1z"/>
	</g>
	<g>
		<circle class="st0" cx="104.5" cy="217.6" r="2.4"/>
		<rect x="102" y="202.6" class="st0" width="4.9" height="10.2"/>
	</g>
</g>
<g>
	<path class="st0" d="M726.1,77.2c-0.5,0.5-0.5,1.4,0,1.9c0.5,0.5,1.4,0.5,1.9,0c1.1-1.1,2.5-1.7,4-1.7s2.9,0.6,4,1.7
		c0.3,0.3,0.6,0.4,1,0.4c0.3,0,0.7-0.1,1-0.4c0.5-0.5,0.5-1.4,0-1.9c-1.6-1.6-3.7-2.5-5.9-2.5C729.8,74.8,727.7,75.7,726.1,77.2
		L726.1,77.2z"/>
	<path class="st0" d="M723.1,75.5c0.3,0,0.7-0.1,1-0.4c2.1-2.1,5-3.3,8-3.3s5.9,1.2,8,3.3c0.5,0.5,1.4,0.5,1.9,0
		c0.5-0.5,0.5-1.4,0-1.9c-2.6-2.6-6.2-4.1-9.9-4.1c-3.7,0-7.3,1.5-9.9,4.1c-0.5,0.5-0.5,1.4,0,1.9C722.4,75.4,722.7,75.5,723.1,75.5
		L723.1,75.5z"/>
	<path class="st0" d="M738.2,84.9h-4.1v-2.4c0-1.1-0.9-2-2-2s-2,0.9-2,2v2.4h-22.4c-2.8,0-5,2.3-5,5v14.5c0,2.8,2.3,5,5,5h30.6
		c2.8,0,5-2.3,5-5V90C743.2,87.2,741,84.9,738.2,84.9L738.2,84.9z M708.9,100.6c-0.4-0.7-0.6-1.5-0.7-2.3h1.9v2.3H708.9z
		 M712.1,98.3h2.3v2.3h-2.3V98.3z M712.1,96.2v-2.3h2.3v2.3H712.1z M716.4,98.3h2.3v2.3h-2.3V98.3z M716.4,96.2v-2.3h2.3v2.3H716.4z
		 M720.8,93.9h1.1c0.4,0.7,0.6,1.5,0.8,2.3h-1.9L720.8,93.9L720.8,93.9z M718.7,91.9h-2.3v-1.8c0.8,0.1,1.6,0.4,2.3,0.7V91.9z
		 M714.4,91.9h-2.3v-1.1c0.7-0.4,1.5-0.6,2.3-0.7L714.4,91.9L714.4,91.9z M710,93.9v2.3h-1.9c0.1-0.8,0.4-1.6,0.8-2.3H710z
		 M712.1,102.6h2.3v1.9c-0.8-0.1-1.6-0.4-2.3-0.7V102.6z M716.4,102.6h2.3v1.2c-0.7,0.4-1.5,0.6-2.3,0.7V102.6z M720.8,100.6v-2.3
		h1.9c-0.1,0.8-0.3,1.6-0.7,2.3C721.9,100.6,720.8,100.6,720.8,100.6z M734.9,104.2c-1.6,0-2.9-1.3-2.9-2.9s1.3-2.9,2.9-2.9
		c1.6,0,2.9,1.3,2.9,2.9C737.8,102.9,736.5,104.2,734.9,104.2L734.9,104.2z M734.9,96.1c-1.6,0-2.9-1.3-2.9-2.9
		c0-1.6,1.3-2.9,2.9-2.9c1.6,0,2.9,1.3,2.9,2.9C737.8,94.8,736.5,96.1,734.9,96.1L734.9,96.1z"/>
</g>
</svg>
