<svg height="512" viewBox="0 0 53 60" width="512" xmlns="http://www.w3.org/2000/svg"><g id="Page-1" fill="#fff" fill-rule="evenodd"><g id="012---Change-Lane-Arrow" fill="#fff" fill-rule="nonzero" transform="translate(0 -1)"><path fill="#fff" id="Shape" d="m2 22h5v14.52c.00218506 2.2621444 1.51817743 4.2429449 3.7012 4.836l18.2988 4.8961v1.0179c0 .5522847.4477153 1 1 1s1-.4477153 1-1v-.4828l8 2.1405v10.0723c.0011025 1.1041125.8958875 1.9988975 2 2h10c1.1041125-.0011025 1.9988975-.8958875 2-2v-17.7383c-.0017516-1.8097645-1.217096-3.3934262-2.9648-3.8633l-19.0352-5.1061v-2.8423c0-.5522847-.4477153-1-1-1s-1 .4477153-1 1v2.3057l-8-2.1457v-7.61h5c.7504246.0024734 1.4382608-.4179332 1.7783-1.0869.3393379-.6566473.2813749-1.4481904-.15-2.0484l-11.9794-17.0424c-.3771072-.51707115-.9781229-.82339193-1.6181-.8247h-.0008c-.6447345.00220753-1.2495016.3127315-1.627.8354l-12.023 17.0205c-.43583927.6061452-.49506637 1.4054629-.15332349 2.0692246s1.0267574 1.0799008 1.77332349 1.0772754zm12.0215-19.0146 11.9785 17.0146h-6c-.5522847 0-1 .4477153-1 1v8.61c-.0068959.9081246.6030535 1.7052504 1.4814 1.936l29.0362 7.784c.8738801.2349266 1.4815641 1.0267933 1.4824 1.9317v17.7383h-10v-10.0723c-.0010884-.9052344-.6091626-1.6972394-1.4834-1.9321l-28.2959-7.5708c-1.31033926-.3570646-2.21979407-1.5466824-2.2207-2.9048v-15.52c0-.5522847-.44771525-1-1-1l-5.9932.0171z"/><path id="Shape" d="m31 4c0-.55228475-.4477153-1-1-1s-1 .44771525-1 1v5.0908c0 .55228475.4477153 1 1 1s1-.44771525 1-1z"/><path id="Shape" d="m30 15.7271c-.5522847 0-1 .4477153-1 1v5.0913c0 .5522847.4477153 1 1 1s1-.4477153 1-1v-5.0913c0-.5522847-.4477153-1-1-1z"/><path id="Shape" d="m30 53.9092c-.5522847 0-1 .4477153-1 1v5.0908c0 .5522847.4477153 1 1 1s1-.4477153 1-1v-5.0908c0-.5522847-.4477153-1-1-1z"/></g></g></svg>